<svg xmlns="http://www.w3.org/2000/svg" width="1321" height="113" viewBox="0 0 1321 113" fill="none"><path d="M0.393403 6.20499C-0.0456686 6.54 -0.130024 7.16753 0.20499 7.6066L5.66436 14.7617C5.99938 15.2008 6.6269 15.2851 7.06597 14.9501C7.50504 14.6151 7.5894 13.9876 7.25438 13.5485L2.40161 7.18841L8.76168 2.33564C9.20075 2.00062 9.28511 1.3731 8.9501 0.934031C8.61508 0.494959 7.98756 0.410604 7.54849 0.745618L0.393403 6.20499ZM153.5 27.5L153.742 26.5298L153.688 26.5163L153.633 26.5089L153.5 27.5ZM490 111.5L489.758 112.47L490 112.531L490.242 112.47L490 111.5ZM827.5 27.5L827.74 26.5293L827.499 26.4697L827.258 26.5296L827.5 27.5ZM1167 111.5L1166.76 112.471L1167.19 112.578L1167.56 112.326L1167 111.5ZM1320.98 7.18509C1321.08 6.64235 1320.73 6.1195 1320.19 6.01728L1311.34 4.35142C1310.8 4.2492 1310.28 4.60631 1310.17 5.14905C1310.07 5.69179 1310.43 6.21464 1310.97 6.31687L1318.83 7.79763L1317.35 15.6594C1317.25 16.2021 1317.61 16.725 1318.15 16.8272C1318.69 16.9294 1319.21 16.5723 1319.32 16.0296L1320.98 7.18509ZM0.866772 7.99109L3.40844 8.33275L3.67489 6.35058L1.13323 6.00891L0.866772 7.99109ZM8.49177 9.01609L13.5751 9.69942L13.8416 7.71725L8.75823 7.03391L8.49177 9.01609ZM18.6584 10.3828L23.7418 11.0661L24.0082 9.08391L18.9249 8.40058L18.6584 10.3828ZM28.8251 11.7494L33.9084 12.4328L34.1749 10.4506L29.0916 9.76725L28.8251 11.7494ZM38.9918 13.1161L44.0751 13.7994L44.3416 11.8172L39.2582 11.1339L38.9918 13.1161ZM49.1584 14.4828L54.2418 15.1661L54.5082 13.1839L49.4249 12.5006L49.1584 14.4828ZM59.3251 15.8494L64.4085 16.5328L64.6749 14.5506L59.5916 13.8672L59.3251 15.8494ZM69.4918 17.2161L74.5751 17.8994L74.8416 15.9172L69.7582 15.2339L69.4918 17.2161ZM79.6585 18.5828L84.7418 19.2661L85.0082 17.2839L79.9249 16.6006L79.6585 18.5828ZM89.8251 19.9494L94.9085 20.6328L95.1749 18.6506L90.0916 17.9673L89.8251 19.9494ZM99.9918 21.3161L105.075 21.9994L105.342 20.0173L100.258 19.3339L99.9918 21.3161ZM110.158 22.6828L115.242 23.3661L115.508 21.3839L110.425 20.7006L110.158 22.6828ZM120.325 24.0494L125.408 24.7328L125.675 22.7506L120.592 22.0673L120.325 24.0494ZM130.492 25.4161L135.575 26.0994L135.842 24.1173L130.758 23.4339L130.492 25.4161ZM140.658 26.7828L145.742 27.4661L146.008 25.4839L140.925 24.8006L140.658 26.7828ZM150.825 28.1494L153.367 28.4911L153.633 26.5089L151.092 26.1673L150.825 28.1494ZM153.258 28.4702L155.661 29.0702L156.146 27.1298L153.742 26.5298L153.258 28.4702ZM160.469 30.2702L165.276 31.4702L165.76 29.5298L160.953 28.3298L160.469 30.2702ZM170.083 32.6702L174.89 33.8702L175.374 31.9298L170.567 30.7298L170.083 32.6702ZM179.697 35.0702L184.504 36.2702L184.989 34.3298L180.181 33.1298L179.697 35.0702ZM189.311 37.4702L194.119 38.6702L194.603 36.7298L189.796 35.5298L189.311 37.4702ZM198.926 39.8702L203.733 41.0702L204.217 39.1298L199.41 37.9298L198.926 39.8702ZM208.54 42.2702L213.347 43.4702L213.831 41.5298L209.024 40.3298L208.54 42.2702ZM218.154 44.6702L222.961 45.8702L223.446 43.9298L218.639 42.7298L218.154 44.6702ZM227.769 47.0702L232.576 48.2702L233.06 46.3298L228.253 45.1298L227.769 47.0702ZM237.383 49.4702L242.19 50.6702L242.674 48.7298L237.867 47.5298L237.383 49.4702ZM246.997 51.8702L251.804 53.0702L252.289 51.1298L247.482 49.9298L246.997 51.8702ZM256.611 54.2702L261.419 55.4702L261.903 53.5298L257.096 52.3298L256.611 54.2702ZM266.226 56.6702L271.033 57.8702L271.517 55.9298L266.71 54.7298L266.226 56.6702ZM275.84 59.0702L280.647 60.2702L281.132 58.3298L276.324 57.1298L275.84 59.0702ZM285.454 61.4702L290.261 62.6702L290.746 60.7298L285.939 59.5298L285.454 61.4702ZM295.069 63.8702L299.876 65.0702L300.36 63.1298L295.553 61.9298L295.069 63.8702ZM304.683 66.2702L309.49 67.4702L309.974 65.5298L305.167 64.3298L304.683 66.2702ZM314.297 68.6702L319.104 69.8702L319.589 67.9298L314.781 66.7298L314.297 68.6702ZM323.911 71.0702L328.719 72.2702L329.203 70.3298L324.396 69.1298L323.911 71.0702ZM333.526 73.4702L338.333 74.6702L338.817 72.7298L334.01 71.5298L333.526 73.4702ZM343.14 75.8702L347.947 77.0702L348.431 75.1298L343.624 73.9298L343.14 75.8702ZM352.754 78.2702L357.561 79.4702L358.046 77.5298L353.239 76.3298L352.754 78.2702ZM362.368 80.6702L367.176 81.8702L367.66 79.9298L362.853 78.7298L362.368 80.6702ZM371.983 83.0702L376.79 84.2702L377.274 82.3298L372.467 81.1298L371.983 83.0702ZM381.597 85.4702L386.404 86.6702L386.889 84.7298L382.081 83.5297L381.597 85.4702ZM391.211 87.8702L396.018 89.0702L396.503 87.1297L391.696 85.9297L391.211 87.8702ZM400.826 90.2702L405.633 91.4702L406.117 89.5297L401.31 88.3297L400.826 90.2702ZM410.44 92.6702L415.247 93.8702L415.731 91.9297L410.924 90.7297L410.44 92.6702ZM420.054 95.0702L424.861 96.2702L425.346 94.3297L420.538 93.1297L420.054 95.0702ZM429.668 97.4702L434.476 98.6702L434.96 96.7297L430.153 95.5297L429.668 97.4702ZM439.283 99.8702L444.09 101.07L444.574 99.1297L439.767 97.9297L439.283 99.8702ZM448.897 102.27L453.704 103.47L454.188 101.53L449.381 100.33L448.897 102.27ZM458.511 104.67L463.318 105.87L463.803 103.93L458.996 102.73L458.511 104.67ZM468.125 107.07L472.933 108.27L473.417 106.33L468.61 105.13L468.125 107.07ZM477.74 109.47L482.547 110.67L483.031 108.73L478.224 107.53L477.74 109.47ZM487.354 111.87L489.758 112.47L490.242 110.53L487.838 109.93L487.354 111.87ZM490.242 112.47L492.652 111.87L492.169 109.93L489.758 110.53L490.242 112.47ZM497.474 110.67L502.295 109.47L501.812 107.53L496.991 108.73L497.474 110.67ZM507.117 108.27L511.938 107.07L511.455 105.13L506.633 106.33L507.117 108.27ZM516.759 105.87L521.581 104.67L521.098 102.73L516.276 103.93L516.759 105.87ZM526.402 103.47L531.224 102.27L530.741 100.33L525.919 101.53L526.402 103.47ZM536.045 101.07L540.867 99.8704L540.383 97.9296L535.562 99.1296L536.045 101.07ZM545.688 98.6704L550.509 97.4704L550.026 95.5296L545.205 96.7296L545.688 98.6704ZM555.331 96.2704L560.152 95.0704L559.669 93.1296L554.848 94.3296L555.331 96.2704ZM564.974 93.8704L569.795 92.6704L569.312 90.7296L564.491 91.9296L564.974 93.8704ZM574.617 91.4704L579.438 90.2704L578.955 88.3296L574.133 89.5296L574.617 91.4704ZM584.259 89.0704L589.081 87.8704L588.598 85.9296L583.776 87.1296L584.259 89.0704ZM593.902 86.6704L598.724 85.4704L598.241 83.5296L593.419 84.7296L593.902 86.6704ZM603.545 84.2704L608.367 83.0704L607.883 81.1296L603.062 82.3296L603.545 84.2704ZM613.188 81.8704L618.009 80.6704L617.526 78.7296L612.705 79.9296L613.188 81.8704ZM622.831 79.4704L627.652 78.2704L627.169 76.3296L622.348 77.5296L622.831 79.4704ZM632.474 77.0704L637.295 75.8704L636.812 73.9296L631.991 75.1296L632.474 77.0704ZM642.117 74.6704L646.938 73.4704L646.455 71.5296L641.634 72.7296L642.117 74.6704ZM651.759 72.2704L656.581 71.0704L656.098 69.1296L651.276 70.3296L651.759 72.2704ZM661.402 69.8704L666.224 68.6704L665.741 66.7296L660.919 67.9296L661.402 69.8704ZM671.045 67.4704L675.867 66.2704L675.384 64.3296L670.562 65.5296L671.045 67.4704ZM680.688 65.0704L685.509 63.8704L685.026 61.9296L680.205 63.1296L680.688 65.0704ZM690.331 62.6704L695.152 61.4704L694.669 59.5296L689.848 60.7296L690.331 62.6704ZM699.974 60.2704L704.795 59.0704L704.312 57.1296L699.491 58.3296L699.974 60.2704ZM709.617 57.8704L714.438 56.6704L713.955 54.7296L709.134 55.9296L709.617 57.8704ZM719.259 55.4704L724.081 54.2704L723.598 52.3296L718.776 53.5296L719.259 55.4704ZM728.902 53.0704L733.724 51.8704L733.241 49.9296L728.419 51.1296L728.902 53.0704ZM738.545 50.6704L743.367 49.4704L742.884 47.5296L738.062 48.7296L738.545 50.6704ZM748.188 48.2704L753.009 47.0704L752.526 45.1296L747.705 46.3296L748.188 48.2704ZM757.831 45.8704L762.652 44.6704L762.169 42.7296L757.348 43.9296L757.831 45.8704ZM767.474 43.4704L772.295 42.2704L771.812 40.3296L766.991 41.5296L767.474 43.4704ZM777.117 41.0704L781.938 39.8704L781.455 37.9296L776.633 39.1296L777.117 41.0704ZM786.759 38.6704L791.581 37.4704L791.098 35.5296L786.276 36.7296L786.759 38.6704ZM796.402 36.2704L801.224 35.0704L800.741 33.1296L795.919 34.3296L796.402 36.2704ZM806.045 33.8704L810.866 32.6704L810.383 30.7296L805.562 31.9296L806.045 33.8704ZM815.688 31.4704L820.509 30.2704L820.026 28.3296L815.205 29.5296L815.688 31.4704ZM825.331 29.0704L827.742 28.4704L827.258 26.5296L824.848 27.1296L825.331 29.0704ZM827.26 28.4707L829.685 29.0707L830.165 27.1293L827.74 26.5293L827.26 28.4707ZM834.535 30.2707L839.385 31.4707L839.865 29.5293L835.015 28.3293L834.535 30.2707ZM844.235 32.6707L849.085 33.8707L849.565 31.9293L844.715 30.7293L844.235 32.6707ZM853.935 35.0707L858.785 36.2707L859.265 34.3293L854.415 33.1293L853.935 35.0707ZM863.635 37.4707L868.485 38.6707L868.965 36.7293L864.115 35.5293L863.635 37.4707ZM873.335 39.8707L878.185 41.0707L878.665 39.1293L873.815 37.9293L873.335 39.8707ZM883.035 42.2707L887.885 43.4707L888.365 41.5293L883.515 40.3293L883.035 42.2707ZM892.735 44.6707L897.585 45.8707L898.065 43.9293L893.215 42.7293L892.735 44.6707ZM902.435 47.0707L907.285 48.2707L907.765 46.3293L902.915 45.1293L902.435 47.0707ZM912.135 49.4707L916.985 50.6707L917.465 48.7293L912.615 47.5293L912.135 49.4707ZM921.835 51.8707L926.685 53.0707L927.165 51.1293L922.315 49.9293L921.835 51.8707ZM931.535 54.2707L936.385 55.4707L936.865 53.5293L932.015 52.3293L931.535 54.2707ZM941.235 56.6707L946.085 57.8707L946.565 55.9293L941.715 54.7293L941.235 56.6707ZM950.935 59.0707L955.785 60.2707L956.265 58.3293L951.415 57.1293L950.935 59.0707ZM960.635 61.4707L965.485 62.6707L965.965 60.7293L961.115 59.5293L960.635 61.4707ZM970.335 63.8707L975.185 65.0707L975.665 63.1293L970.815 61.9293L970.335 63.8707ZM980.035 66.2707L984.885 67.4707L985.365 65.5293L980.515 64.3293L980.035 66.2707ZM989.735 68.6707L994.585 69.8707L995.065 67.9293L990.215 66.7293L989.735 68.6707ZM999.435 71.0707L1004.28 72.2707L1004.77 70.3293L999.915 69.1293L999.435 71.0707ZM1009.13 73.4707L1013.98 74.6707L1014.47 72.7293L1009.62 71.5293L1009.13 73.4707ZM1018.83 75.8707L1023.68 77.0707L1024.17 75.1293L1019.32 73.9293L1018.83 75.8707ZM1028.53 78.2707L1033.38 79.4707L1033.87 77.5293L1029.02 76.3293L1028.53 78.2707ZM1038.23 80.6707L1043.08 81.8707L1043.57 79.9293L1038.72 78.7293L1038.23 80.6707ZM1047.93 83.0707L1052.78 84.2707L1053.27 82.3293L1048.42 81.1293L1047.93 83.0707ZM1057.63 85.4707L1062.48 86.6707L1062.97 84.7293L1058.12 83.5293L1057.63 85.4707ZM1067.33 87.8707L1072.18 89.0707L1072.67 87.1293L1067.82 85.9293L1067.33 87.8707ZM1077.03 90.2707L1081.88 91.4707L1082.37 89.5293L1077.52 88.3293L1077.03 90.2707ZM1086.73 92.6707L1091.58 93.8707L1092.07 91.9293L1087.22 90.7293L1086.73 92.6707ZM1096.43 95.0707L1101.28 96.2707L1101.77 94.3293L1096.92 93.1293L1096.43 95.0707ZM1106.13 97.4707L1110.98 98.6707L1111.47 96.7292L1106.62 95.5293L1106.13 97.4707ZM1115.83 99.8707L1120.68 101.071L1121.17 99.1292L1116.32 97.9293L1115.83 99.8707ZM1125.53 102.271L1130.38 103.471L1130.87 101.529L1126.02 100.329L1125.53 102.271ZM1135.23 104.671L1140.08 105.871L1140.57 103.929L1135.72 102.729L1135.23 104.671ZM1144.93 107.071L1149.78 108.271L1150.27 106.329L1145.42 105.129L1144.93 107.071ZM1154.63 109.471L1159.48 110.671L1159.97 108.729L1155.12 107.529L1154.63 109.471ZM1164.33 111.871L1166.76 112.471L1167.24 110.529L1164.82 109.929L1164.33 111.871ZM1167.56 112.326L1169.58 110.951L1168.45 109.299L1166.44 110.674L1167.56 112.326ZM1173.6 108.201L1177.63 105.451L1176.5 103.799L1172.48 106.549L1173.6 108.201ZM1181.66 102.701L1185.68 99.9508L1184.55 98.2992L1180.53 101.049L1181.66 102.701ZM1189.71 97.2008L1193.74 94.4508L1192.61 92.7992L1188.58 95.5492L1189.71 97.2008ZM1197.76 91.7008L1201.79 88.9508L1200.66 87.2992L1196.63 90.0492L1197.76 91.7008ZM1205.81 86.2008L1209.84 83.4508L1208.71 81.7992L1204.69 84.5492L1205.81 86.2008ZM1213.87 80.7008L1217.89 77.9508L1216.76 76.2992L1212.74 79.0492L1213.87 80.7008ZM1221.92 75.2008L1225.95 72.4508L1224.82 70.7992L1220.79 73.5492L1221.92 75.2008ZM1229.97 69.7008L1234 66.9508L1232.87 65.2992L1228.84 68.0492L1229.97 69.7008ZM1238.02 64.2008L1242.05 61.4508L1240.92 59.7992L1236.9 62.5492L1238.02 64.2008ZM1246.08 58.7008L1250.1 55.9508L1248.98 54.2992L1244.95 57.0492L1246.08 58.7008ZM1254.13 53.2008L1258.16 50.4508L1257.03 48.7992L1253 51.5492L1254.13 53.2008ZM1262.18 47.7008L1266.21 44.9508L1265.08 43.2992L1261.05 46.0492L1262.18 47.7008ZM1270.24 42.2008L1274.26 39.4508L1273.13 37.7992L1269.11 40.5492L1270.24 42.2008ZM1278.29 36.7008L1282.31 33.9508L1281.19 32.2992L1277.16 35.0492L1278.29 36.7008ZM1286.34 31.2008L1290.37 28.4508L1289.24 26.7992L1285.21 29.5492L1286.34 31.2008ZM1294.39 25.7008L1298.42 22.9508L1297.29 21.2992L1293.26 24.0492L1294.39 25.7008ZM1302.45 20.2008L1306.47 17.4508L1305.34 15.7992L1301.32 18.5492L1302.45 20.2008ZM1310.5 14.7008L1314.52 11.9508L1313.4 10.2993L1309.37 13.0492L1310.5 14.7008ZM1318.55 9.2008L1320.56 7.82577L1319.44 6.17423L1317.42 7.54926L1318.55 9.2008Z" fill="#C4C4C4"></path></svg>