<?xml version="1.0" encoding="UTF-8"?>
<svg version="1.1" viewBox="0 0 1600 440" width="1280" height="1280" xmlns="http://www.w3.org/2000/svg">
<path transform="translate(172)" d="m0 0h3v2c1.14-0.324 2.28-0.649 3.45-0.983 4.48-1.11 8.69-1.31 13.3-1.29 0.835-0.00511 1.67-0.0102 2.53-0.0155 2.74-0.0138 5.48-0.0129 8.22-0.0106 1.93-0.00389 3.85-0.00823 5.78-0.013 4.03-0.00745 8.06-0.00718 12.1-0.00191 5.13 0.00577 10.3-0.0111 15.4-0.0343 3.98-0.0149 7.96-0.0156 11.9-0.0125 1.89-5.08e-4 3.78-0.00565 5.66-0.0158 16.7-0.0789 32.3 1.85 47.8 8.6 2.42 1.01 4.88 1.89 7.35 2.77 17.5 6.26 33.3 15.4 48.7 25.8 1.28 0.851 1.28 0.851 2.58 1.72 0.792 0.541 1.58 1.08 2.4 1.64 0.714 0.484 1.43 0.969 2.16 1.47 1.67 1.42 1.67 1.42 2.67 4.42 1.66 0.674 3.33 1.34 5 2 1.38 1.29 2.71 2.63 4 4 1.12 0.946 2.24 1.88 3.38 2.81 3.03 2.56 5.58 5.3 8.07 8.38 1.64 1.95 1.64 1.95 3.95 4.17 3.47 3.51 6.46 7.35 9.52 11.2 2.03 2.59 2.03 2.59 5.09 4.43 0.33 0.99 0.66 1.98 1 3 0.432 0.422 0.864 0.843 1.31 1.28 2.41 2.45 4.01 5.35 5.75 8.29 2.62 4.48 2.62 4.48 5.94 8.44 0.809 1.5 1.57 3.03 2.31 4.56 2.07 4.22 4.26 8.34 6.57 12.4 1.93 3.49 3.54 6.98 4.95 10.7l1.03 2.72c0.351 0.932 0.703 1.86 1.06 2.82l1.05 2.78c1.01 2.66 2.01 5.31 3.01 7.97 0.281 0.745 0.562 1.49 0.852 2.26 5.09 13.5 7.64 26.4 9.15 40.7 0.146 1.38 0.146 1.38 0.294 2.78 2.95 32.4 5.23 72.3-9.29 102l-2 1c-0.451 1.84-0.899 3.68-1.33 5.53-7.4 27.4-28.4 54.2-47.7 74.5-0.471 0.499-0.943 0.997-1.43 1.51-7.46 7.84-15.3 14.8-24 21.3-1.46 1.09-2.9 2.2-4.34 3.31-11.9 9-25.3 17-39.3 22.1-4.35 1.65-8.3 3.45-12.3 5.84-23.5 13.3-50.4 10.5-76.5 10.2-5.23-0.0593-10.5-0.0479-15.7-0.0353-5.11 0.00592-10.2-0.0241-15.3-0.0653-2.41-0.017-4.81-0.0255-7.22-0.0245-22.2-0.0386-41-5.4-61.2-14.4-0.943-0.414-0.943-0.414-1.9-0.836-10.8-4.77-21-10.2-30.8-16.9-0.933-0.628-0.933-0.628-1.89-1.27-20.7-14-39.4-31.5-54.1-51.7l-1.94-2.66c-1.72-2.42-3.4-4.87-5.06-7.34-0.623-0.886-1.25-1.77-1.89-2.68-7.92-11.5-14.2-23.7-19.6-36.5-0.338-0.79-0.677-1.58-1.03-2.39-1.72-4.14-2.96-7.93-3.47-12.4h-2c-0.338-1.58-0.67-3.17-1-4.75l-0.562-2.67c-0.438-2.58-0.438-2.58-0.438-6.58l-2-1c-0.35-1.66-0.682-3.33-1-5l-2-3c-0.0408-2-0.0425-4 0-6l-1-2c-1.15-7.83-1.2-15.6-1.24-23.5-0.00408-0.689-0.00815-1.38-0.0124-2.09-0.0207-3.65-0.0351-7.3-0.0445-10.9-0.00883-2.98-0.0297-5.96-0.0615-8.95-0.317-30.3-0.317-30.3 4.36-44.5 0.549-2.82 1-5.63 1.41-8.47 0.632-2.71 1.65-5.11 2.78-7.65 1.09-2.55 1.96-5.15 2.85-7.78 5.12-15.2 12.4-29.1 20-43.1h2l0.625-2.44c2.48-6.42 6.37-11.9 11.4-16.6 3.86-4.22 7.5-8.59 11.1-13.1l2.04-2.55c1.15-1.44 2.29-2.88 3.42-4.33 3.37-4.15 7.13-7.3 11.4-10.5 2-1.47 2-1.47 3.42-2.96 19.8-19.6 49.2-37.4 76.4-43.8 3.67-0.942 6.9-2.31 10.3-3.95 2.9-1.32 5.86-2.09 8.94-2.88v-1zm-169 266 1 2z" fill="#FBFCFE"/>
<path transform="translate(269 127)" d="m0 0c1.23 0.0462 1.23 0.0462 2.48 0.0933 5.47 0.289 5.47 0.289 7.71 2.53 0.227 2.34 0.227 2.34 0.195 5.23-0.00645 1.03-0.0129 2.06-0.0195 3.12-0.0251 1.62-0.0251 1.62-0.0508 3.27-0.00902 1.09-0.018 2.18-0.0273 3.3-0.0236 2.69-0.0566 5.39-0.0977 8.08-0.855 0.0376-0.855 0.0376-1.73 0.0759-2.57 0.116-5.14 0.239-7.71 0.362-1.35 0.059-1.35 0.059-2.72 0.119-0.854 0.0419-1.71 0.0838-2.59 0.127-1.19 0.055-1.19 0.055-2.4 0.111-1.87 0.011-1.87 0.011-2.86 1.21-0.157 1.56-0.251 3.13-0.316 4.69-0.0419 0.944-0.0838 1.89-0.127 2.86-0.0393 0.993-0.0786 1.99-0.119 3.01-0.0648 1.5-0.0648 1.5-0.131 3.02-0.106 2.47-0.208 4.94-0.307 7.42-0.601 0.0251-1.2 0.0501-1.82 0.0759-2.71 0.116-5.41 0.239-8.12 0.362-1.42 0.059-1.42 0.059-2.87 0.119-0.899 0.0419-1.8 0.0838-2.72 0.127-0.833 0.0367-1.67 0.0733-2.52 0.111-1.95-0.00101-1.95-0.00101-2.95 1.21-0.237 2.69-0.422 5.36-0.562 8.06-0.144 2.62-0.289 5.24-0.438 7.94h-21c-0.33 6.27-0.66 12.5-1 19-3.31 0.0268-6.62 0.0468-9.94 0.0625-0.946 0.00838-1.89 0.0168-2.87 0.0254-1.35 0.00483-1.35 0.00483-2.72 0.00977-0.833 0.00524-1.67 0.0105-2.52 0.0159-1.95-0.114-1.95-0.114-2.95-1.11-0.106-2.55-0.147-5.06-0.145-7.61-0.00336-0.797-0.00672-1.59-0.0102-2.41-0.00954-2.65-0.0115-5.29-0.0125-7.94-0.00321-1.83-0.00657-3.66-0.0101-5.5-6e-3 -3.85-0.00784-7.69-0.00725-11.5 1.02e-4 -4.94-0.0136-9.88-0.0308-14.8-0.0111-3.79-0.0131-7.57-0.0126-11.4-0.00118-1.82-0.00563-3.64-0.0133-5.46-0.00975-2.54-0.00694-5.09-8.95e-4 -7.63-0.00562-0.758-0.0112-1.52-0.017-2.3 0.0316-5.21 0.0316-5.21 2.26-7.44 2.58-0.319 2.58-0.319 5.89-0.414 1.23-0.0388 2.47-0.0777 3.74-0.118 1.35-0.0317 2.71-0.0628 4.06-0.0933 1.4-0.0373 2.79-0.0749 4.19-0.113 18.6-0.476 37.3-0.681 55.9 0.113z" fill="#344459"/>
<path transform="translate(770 183)" d="m0 0c2.25 2.25 4.22 4.58 6.12 7.12 0.568-0.543 1.14-1.09 1.72-1.64 7.72-7.16 14.3-10.7 25.1-10.5 7.23 0.506 13.6 2.09 18.6 7.76 4.18 5.5 5.85 10.7 5.82 17.7-1.51e-4 1.22-3.02e-4 2.44-4.58e-4 3.7-0.0103 1.3-0.0206 2.61-0.0313 3.95-0.00373 1.36-0.00658 2.72-0.00858 4.08-0.0076 3.56-0.0272 7.12-0.0494 10.7-0.0205 3.64-0.0296 7.28-0.0397 10.9-0.0214 7.13-0.0565 14.3-0.0977 21.4h-12c-0.0146-1.65-0.0292-3.31-0.0442-5.01-0.0581-6.16-0.135-12.3-0.218-18.5-0.0348-2.66-0.0612-5.32-0.084-7.98-0.0337-3.83-0.086-7.67-0.142-11.5-0.00639-1.18-0.0128-2.37-0.0194-3.59-0.115-6.49-0.619-11.6-3.49-17.4-5.54-4.4-12.2-4.73-19-4-4.67 1.39-7.4 3.24-10.4 7.06-2.12 3.99-2.7 6.87-2.77 11.3-0.0199 1.1-0.0399 2.2-0.0604 3.34-0.0167 1.19-0.0334 2.38-0.0506 3.6-0.0208 1.22-0.0416 2.43-0.063 3.69-0.0655 3.89-0.124 7.78-0.183 11.7-0.0432 2.64-0.0868 5.27-0.131 7.91-0.107 6.47-0.208 12.9-0.307 19.4h-13c-0.662-9.43-1.09-18.8-0.957-28.3 0.0102-0.856 0.0205-1.71 0.031-2.59 0.045-3.51 0.0953-7.01 0.173-10.5 0.0546-2.61 0.0835-5.22 0.109-7.83 0.0238-0.782 0.0476-1.56 0.0721-2.37 0.0267-5.61-1.18-8.83-4.43-13.4-6.02-3.73-12.4-3.97-19.2-2.53-4.1 1.3-6.89 2.99-9.66 6.41-2.44 4.75-1.82 10.4-1.8 15.6-0.0151 1.3-0.0302 2.6-0.0458 3.94-0.0397 3.44-0.05 6.88-0.054 10.3-0.00935 3.52-0.0468 7.04-0.0818 10.6-0.0645 6.89-0.0952 13.8-0.111 20.7h-13c-0.992-11.5-1.16-22.9-1.12-34.5 8.86e-4 -0.924 0.00177-1.85 0.00269-2.8 0.0153-13.6 0.233-27.1 1.12-40.7h12c0.33 2.64 0.66 5.28 1 8 0.496-0.398 0.993-0.797 1.5-1.21 11.7-9.15 26.2-12.5 39.4-3.92z" fill="#010204"/>
<path transform="translate(1218 183)" d="m0 0c2.02 1.58 3.85 3.1 5.56 5 0.33-2.64 0.66-5.28 1-8h12c0.0698 10.4 0.123 20.7 0.155 31.1 0.0156 4.81 0.0367 9.62 0.0709 14.4 0.0328 4.65 0.0506 9.3 0.0583 13.9 0.0055 1.77 0.0162 3.53 0.0326 5.3 0.224 25.3 0.224 25.3-7.6 34.5-7.7 7.82-15.8 10.8-26.8 11.1-10.5-0.311-18.5-3.96-26.5-10.4-1.44-1.94-1.44-1.94-1.5-3.88 1.5-2.92 3.67-4.85 6.06-7.06 0.461 0.471 0.923 0.941 1.4 1.43 6.1 5.82 12.2 8.47 20.6 9.01 6.13-0.274 12-2.6 16.5-6.75 3.83-6.86 4.02-14 4.5-21.7-0.534 0.398-1.07 0.797-1.62 1.21-7.86 5.59-15.7 8.72-25.4 7.79-8.64-1.83-15.2-6.1-20.3-13.3-7.75-12.5-8.39-28.2-5.62-42.4 2.35-8.95 6.98-16.9 14.8-22.1 10.9-5.78 22-5.33 32.6 0.852zm-29.2 12.8c-7.21 10.5-7.38 22.9-5.8 35.2 1.64 6.69 5.48 11.5 10.6 16 5.35 2.91 12.4 3.07 18.2 1.35 5.08-2.27 8.84-5.64 11.8-10.3 0.819-2.93 0.867-5.69 0.832-8.71 0.00811-0.815 0.0162-1.63 0.0246-2.47 0.00842-1.71 0.00169-3.43-0.0195-5.14-0.0246-2.6 0.0201-5.2 0.071-7.81 0.268-10.2 0.268-10.2-4.22-18.9-5.3-4.85-11.4-6.56-18.5-6.28-5.46 0.85-9.19 3.3-13 7.16z" fill="#000102"/>
<path transform="translate(535,152)" d="m0 0c56.7 0 56.7 0 70.2 13.2 5.67 9.12 7.4 18.9 5.21 29.4-2.35 7.74-6.66 13.9-13.5 18.4-8.32 3.86-16.3 5.14-25.5 5.1-1.24-0.0025-2.48-5e-3 -3.76-0.00757-1.55-0.0091-3.11-0.0182-4.71-0.0276-7.46-0.0309-7.46-0.0309-15.1-0.0625v40h-13v-106zm13 12c-0.0887 3.1-0.115 6.18-0.0977 9.29 0.00141 0.931 0.00283 1.86 0.00429 2.82 0.00562 2.99 0.0182 5.97 0.0309 8.96 0.00501 2.02 0.00958 4.04 0.0137 6.06 0.0111 4.96 0.0283 9.92 0.0488 14.9 4.66 0.125 9.32 0.215 14 0.275 1.58 0.0249 3.16 0.0589 4.74 0.103 13.4 0.402 13.4 0.402 25.3-5.38 5.1-5.32 6.32-10.5 6.21-17.6-0.469-5.19-2.18-9.07-5.4-13.1-8.12-6.5-15.5-6.91-25.5-7.03-2.31-0.0288-4.62-0.084-6.92-0.144-1.46-0.0321-2.93-0.0628-4.39-0.0918-0.692-0.0145-1.38-0.029-2.1-0.0439-3.25-0.319-3.25-0.319-5.94 1.06z" fill="#000103"/>
<path transform="translate(899 184)" d="m0 0c5.2 4.1 8.2 9.06 9.79 15.4v4h-2c0.495 12.4 0.495 12.4 1 25h1c0.0251 0.625 0.0501 1.25 0.0759 1.89 0.117 2.87 0.239 5.74 0.362 8.61 0.0393 0.982 0.0786 1.96 0.119 2.98 0.241 5.56 0.663 11 1.44 16.5h-13c-0.66-2.31-1.32-4.62-2-7-0.701 0.482-1.4 0.964-2.12 1.46-8.44 5.62-15.6 8.65-25.9 7.54-8.13-1.65-14.2-5.67-19.5-11.9-2.88-5.83-2.35-12.8-1.5-19.1 2.24-6.32 5.89-10.9 11.8-14 11.7-5.12 23.6-5.14 36.2-4.96 0.477-8.46 0.477-8.46-3-16-4.81-4.34-9.7-5.23-16-5-4.91 0.809-8.69 2.19-12 6-2.1 2.87-2.1 2.87-3 6h-13c1.34-8.04 4.57-12.5 11.1-17.3 12.1-7.5 28.2-8.22 40.1-0.0977zm-38 44.2c-1.75 3.31-2.29 6.55-2.19 10.2 1.25 3.82 2.59 5.63 5.56 8.31 5.91 2.9 11.7 3.46 18.1 1.69 5.45-2.07 9.32-5.94 13.4-10 0.0863-1.34 0.107-2.69 0.0977-4.04-0.00322-0.809-0.00645-1.62-0.00977-2.45-0.00838-0.85-0.0168-1.7-0.0254-2.58-0.00451-0.854-0.00902-1.71-0.0137-2.59-0.0118-2.12-0.0298-4.23-0.0488-6.35-18.9-0.863-18.9-0.863-34.8 7.75z" fill="#000102"/>
<path transform="translate(1137,182)" d="m0 0c3.77 2.65 6.9 5.61 10 9 0.535 0.579 1.07 1.16 1.62 1.75 8.03 9.89 7.43 24.2 6.38 36.2-1.48 8.78-4.47 15-11 21-0.855 0.847-0.855 0.847-1.73 1.71-7.04 6.59-15.6 8.63-25.1 8.43-8.82-0.599-16.2-3.86-22.9-9.71-1.21-1.43-1.21-1.43-1.21-3.43h-2c-8.12-14.6-9.73-27.5-5.98-43.7 1.32-4.38 3.2-7.69 5.98-11.3 0.866-1.3 0.866-1.3 1.75-2.62 11.9-12.6 28.9-14.3 44.2-7.38zm-33.7 13.7c-7.25 8.72-8.06 19.3-7.31 30.3 1.31 7.63 4.52 15.6 10.9 20.4 6.27 3.42 12.3 4.27 19.2 2.59 5.89-1.99 9.93-5.46 13-10.9 4.58-10.2 5.2-22.5 1.94-33.1-2.84-6.85-6.51-11.8-13.3-15.1-9.31-3.09-17.7-1.21-24.4 5.8z" fill="#000101"/>
<path transform="translate(1344 184)" d="m0 0c4.86 4.09 8.42 8.95 9.38 15.3 0.0619 0.99 0.124 1.98 0.188 3-2.52 1.26-4.31 1.1-7.12 1.06-0.91-0.00902-1.82-0.018-2.76-0.0273-1.05-0.0174-1.05-0.0174-2.12-0.0352-0.28-0.603-0.559-1.21-0.848-1.83-2.23-4.45-4.23-8.34-8.93-10.6-6.22-1.64-12.8-1.35-18.8 0.539-3.01 2.38-4.16 4.23-5.38 7.88-0.253 3.15-0.253 3.15 1 6 5.13 4.27 10.9 5.68 17.2 7.44 21.2 5.89 21.2 5.89 26.8 14.6 2.43 5.73 2.35 11 1 17-3.17 6.34-8.46 11.2-15.1 13.8-11.1 3.61-23.1 3.34-33.6-1.94-5.6-3.31-9.75-7.84-12.8-13.6-0.562-2.31-0.562-2.31-0.562-7.31h13c0.412 1.07 0.825 2.15 1.25 3.25 1.79 4.15 3.88 6.71 7.88 8.94 8.02 2.27 15.2 2.43 22.9-1.19 3.03-2.67 3.86-4.02 4.44-8-0.533-3.66-0.951-5.22-3.44-8-5.06-2.83-10.7-4.23-16.3-5.8-20.5-5.84-20.5-5.84-25.7-14.7-2.24-5.71-1.85-11.2 0.254-16.9 3.37-5.05 6.08-8.19 11.6-10.9 1.01-0.5 2.02-1 3.05-1.52 10.5-4.24 24.1-3.08 33.5 3.45z" fill="#000101"/>
<path transform="translate(1589 184)" d="m0 0c4.82 3.84 8.24 8.74 9.18 14.9 0.0412 0.969 0.0825 1.94 0.125 2.94-6.43 0.495-6.43 0.495-13 1-0.516-1.4-1.03-2.81-1.56-4.25-1.7-3.72-3.25-6.34-7.11-8.16-5.85-1.48-12.7-1.85-18.5 0.176-2.9 1.81-4.98 3.93-5.83 7.23 0.0684 3.83 0.198 6.12 2.82 9 4.68 2.94 9.68 4.09 15 5.5 18.8 5.02 18.8 5.02 24.1 11.6 0.566 0.672 1.13 1.34 1.71 2.04 3.63 5.13 3.08 11.9 2.35 17.9-1.47 3.3-3.38 5.54-6 8-0.495 0.491-0.99 0.982-1.5 1.49-6.54 5.54-16.8 7.16-25.2 6.79-10.6-1.28-18.1-4.35-25.2-12.3-3.38-4.67-4.12-7.09-4.12-12.9h12c0.536 1.24 1.07 2.47 1.62 3.75 2.8 5.55 6.3 7.53 12.1 9.56 6.24 1.32 12.6 0.864 18.2-2.12 3.54-2.44 3.54-2.44 5-6.19-0.312-3.55-0.873-6.62-2-10-3.34-1.64-6.84-2.58-10.4-3.55-1.03-0.287-2.05-0.574-3.11-0.869-2.13-0.59-4.26-1.17-6.39-1.75-9.44-2.66-17.3-5.67-23.1-13.8-2.23-4.46-1.49-10.2-1-15 2.19-6.35 7.21-10.8 13-14 12.6-4.94 25.2-4.15 36.7 3.16z" fill="#000101"/>
<path transform="translate(145 223)" d="m0 0c1.11 0.00516 2.22 0.0103 3.36 0.0156 1.16 0.0206 2.32 0.0412 3.52 0.0625 1.13 0.00516 2.25 0.0103 3.41 0.0156 21.5 0.198 21.5 0.198 25.8 3.55 4.91 5.56 5.12 10.8 4.89 18.1-0.534 3.72-0.94 5.02-3.7 7.47-2.81 1.83-5.42 2.92-8.81 3.12 2.09 3.61 4.38 6.96 6.88 10.3 2.44 3.34 4.86 6.67 7.12 10.1 0.392 0.597 0.784 1.19 1.19 1.81 0.812 1.75 0.812 1.75 0.812 5.75-4.01 0.393-6.21 0.591-9.5-1.88-2.9-3.35-5.36-7.09-7.85-10.8-1.28-1.85-2.67-3.63-4.09-5.38-1.56-2-1.56-2-1.56-4h-2c-0.378-0.481-0.755-0.962-1.14-1.46-2.84-2.36-6-2.11-9.54-2.23-0.702-0.0342-1.4-0.0683-2.13-0.104-1.73-0.0823-3.46-0.147-5.19-0.209-1.08 5.44-1.32 10.8-1.56 16.4-0.0432 0.927-0.0864 1.85-0.131 2.81-0.105 2.27-0.208 4.54-0.307 6.82-2.88 0.125-2.88 0.125-6 0-2.59-2.59-2.26-3.63-2.27-7.23-0.00953-1.09-0.0191-2.18-0.0289-3.31 9.11e-4 -1.18 0.00182-2.37 0.00276-3.59-0.00429-1.21-0.00857-2.42-0.013-3.67-0.00575-2.56-0.00624-5.13-0.00191-7.69 0.00316-3.93-0.0203-7.87-0.0457-11.8-0.00227-2.49-0.00298-4.98-0.00195-7.46-0.00921-1.18-0.0184-2.36-0.0279-3.58 0.00623-1.09 0.0125-2.19 0.0189-3.32-6.29e-4 -0.964-0.00126-1.93-0.00191-2.92 0.374-2.44 0.374-2.44 1.74-4.25 2.4-1.74 4.26-1.54 7.19-1.52z" fill="#080C0E"/>
<path transform="translate(1514,186)" d="m0 0c4.82 4.81 7.51 10.4 9 17v3h-12c-4.88-9.63-4.88-9.63-6-13-2.38-1.18-2.38-1.18-5-2-0.99-0.33-1.98-0.66-3-1-7.26-0.656-14.2-0.83-20 4-6.28 7.26-7.39 16-7.38 25.3 0.00242 1.25 0.00242 1.25 0.00488 2.52 0.16 8.04 1.98 14.3 6.25 21.2 4.91 4.62 10.5 6.18 17.1 6 6.14-1.14 10.7-3.5 15-8 1.27-2.31 2.12-4.5 3-7h12c-1.27 8.1-3.73 13.3-10 18.7-7.82 5.69-17.3 8.48-27 7.27-10.4-1.99-18.3-7.05-24.6-15.6-6.92-11.4-7.15-27.3-4.2-40 3.28-10.3 8.71-17.8 18.1-23.1 12.9-6.2 27.4-3.83 38.6 4.74z" fill="#010201"/>
<path transform="translate(1008,152)" d="m0 0c11 0 11 0 13 1v95h51v10h-64v-106z" fill="#000001"/>
<path transform="translate(91.8 223)" d="m0 0c1.06 0.00326 1.06 0.00326 2.15 0.00659 2.14 0.00313 4.28-0.0202 6.42-0.0457 16.1-0.0758 16.1-0.0758 22 5.67 4.05 6.69 4.1 12.8 3.19 20.3-2.3 4.96-5.68 7.08-10.6 9.38-3.03 0.917-5.84 0.987-9 1-0.711 0.00693-1.42 0.0139-2.15 0.021-5.28 0.048-10.6 0.0182-15.8-0.021-0.33 7.92-0.66 15.8-1 24-7-1-7-1-8-2-0.104-1.74-0.139-3.48-0.145-5.22-0.00638-1.11-0.0128-2.23-0.0193-3.38-0.00111-1.21-0.00223-2.43-0.00337-3.68-0.00333-1.24-0.00666-2.47-0.0101-3.75-0.00507-2.62-0.00741-5.24-0.00725-7.87 8.14e-5 -2.7-0.00688-5.39-0.0205-8.09-0.0182-3.87-0.0232-7.74-0.0247-11.6-0.00719-1.21-0.0144-2.42-0.0218-3.67 0.00308-1.12 0.00615-2.24 0.00932-3.39-0.00143-0.987-0.00285-1.97-0.00432-2.99 0.687-6.56 8.03-4.66 13.1-4.68z" fill="#080C0E"/>
<path transform="translate(1378,160)" d="m0 0h13v20h15v10h-15c0.0934 7.64 0.199 15.3 0.317 22.9 0.0383 2.6 0.0732 5.2 0.104 7.8 0.0456 3.73 0.104 7.46 0.164 11.2 0.0116 1.17 0.0231 2.33 0.035 3.53 0.0199 1.08 0.0397 2.16 0.0602 3.28 0.0133 0.953 0.0266 1.91 0.0404 2.89 0.123 2.67 0.123 2.67 2.28 5.41 2.88 0.961 4.7 1.11 7.69 1.06 1.42-0.0206 2.85-0.0412 4.31-0.0625v10c-6.29 2.52-11.9 3.16-18.2 0.5-4.41-2.45-6.87-5.9-8.81-10.5-0.312-3-0.312-3 0-5h-2c-0.136-17.7 0.184-35.3 1-53h-14v-10h14v-20z" fill="#010103"/>
<path transform="translate(224,223)" d="m0 0c2.6-0.293 2.6-0.293 5.62-0.188 1.5 0.0406 1.5 0.0406 3.04 0.082 0.771 0.0348 1.54 0.0696 2.34 0.105 3.82 10.2 7.54 20.4 10.9 30.8 1.26 3.77 2.64 7.48 4.06 11.2 0.33 0.99 0.66 1.98 1 3 1.49 0.495 1.49 0.495 3 1 4.22-10.9 8.35-21.8 12-32.9 3.46-10.6 3.46-10.6 6.02-13.1 1.88-0.266 1.88-0.266 4-0.25 0.701-0.00516 1.4-0.0103 2.12-0.0156 1.88 0.266 1.88 0.266 3.88 2.27 0.241 2.4 0.241 2.4 0.227 5.46-1.51e-4 1.14-3.02e-4 2.28-4.58e-4 3.46-0.0103 1.24-0.0206 2.47-0.0313 3.75-0.00283 1.26-0.00566 2.52-0.00858 3.83-0.00932 3.36-0.0273 6.71-0.0494 10.1-0.0205 3.43-0.0296 6.85-0.0397 10.3-0.0221 6.72-0.0556 13.4-0.0977 20.2-2.33 0.0424-4.67 0.0409-7 0-3.23-3.23-2.08-12.2-2.1-16.3 0.00287-2.72 0.0182-5.44 0.0352-8.16 0.00502-1.41 0.00959-2.82 0.0137-4.23 0.0117-3.42 0.0281-6.85 0.0488-10.3h-2c-0.17 0.606-0.34 1.21-0.516 1.84-1.53 5.28-3.29 10.4-5.38 15.4-1.28 3.14-2.51 6.3-3.73 9.46-0.405 1.05-0.81 2.09-1.23 3.17-1.12 3.01-2.15 6.03-3.15 9.08-5.05 0.685-5.05 0.685-8 0-4.54-4.12-5.91-10.4-7.23-16.2-0.944-3.43-2.36-6.55-3.77-9.81-0.931-2.57-1.78-5.15-2.62-7.75-0.217-0.659-0.433-1.32-0.656-2-0.575-1.75-1.15-3.5-1.72-5.25-0.33-0.99-0.66-1.98-1-3h-2v44h-6c-1.68-1.68-1.19-3.8-1.24-6.11-0.0264-1.09-0.0528-2.18-0.08-3.31-0.023-1.19-0.046-2.38-0.0697-3.6-0.0383-1.82-0.0383-1.82-0.0773-3.67-0.0521-2.57-0.102-5.14-0.148-7.71-0.0745-3.94-0.165-7.88-0.257-11.8-0.0485-2.49-0.0961-4.98-0.143-7.48-0.0291-1.18-0.0581-2.37-0.0881-3.59-0.0169-1.1-0.0339-2.2-0.0513-3.33-0.0192-0.967-0.0384-1.93-0.0582-2.93 0.209-2.44 0.209-2.44 2.21-5.44z" fill="#090D0F"/>
<path transform="translate(579,154)" d="m0 0c10.9 1.14 17.7 2.92 25.8 10.7 5.67 8.58 7.26 17.1 6.19 27.3-1.66 8.01-5.54 14.4-11.9 19.6-8.26 5.4-17.9 6.45-27.5 6.63-1.38 0.0329-2.76 0.0661-4.14 0.0996-2.15 0.0477-4.3 0.0923-6.45 0.131-2.09 0.0396-4.19 0.0911-6.28 0.144-1.24 0.0251-2.49 0.0501-3.77 0.0759-3.08 9.5e-5 -3.08 9.5e-5 -4.96 2.3v-12h2v-3c0.978-0.00411 1.96-0.00822 2.96-0.0125 3.67-0.022 7.34-0.0765 11-0.14 1.58-0.023 3.16-0.0375 4.74-0.043 13.4-0.0203 13.4-0.0203 25.3-5.8 4.42-5.28 5.31-9.93 5.21-16.6-0.467-5.16-2.19-9.05-5.34-13.1-3.75-2.93-7.47-4.47-11.9-6.25-0.33-3.3-0.66-6.6-1-10z" fill="#000002"/>
<path transform="translate(320,223)" d="m0 0c7.18 14 7.18 14 9.27 20 2.35 6.56 5.13 13 8.3 19.2 7.15 14.1 7.15 14.1 6.44 20.9-3.31 0.312-3.31 0.312-7 0-2.54-3.45-4.04-7.29-5.62-11.2-1.26-3.64-1.26-3.64-3.38-6.75-1.78-0.0873-3.56-0.107-5.35-0.0977-1.08 0.00322-2.16 0.00645-3.27 0.00977-1.7 0.0126-1.7 0.0126-3.44 0.0254-1.71 0.00677-1.71 0.00677-3.46 0.0137-2.83 0.0118-5.65 0.0283-8.48 0.0488-0.298 0.904-0.596 1.81-0.902 2.74-0.843 2.51-1.72 4.98-2.66 7.45-0.861 2.26-1.67 4.51-2.44 6.81h-8c-1.34-4.01-0.258-5.4 1.39-9.25 0.258-0.613 0.517-1.23 0.783-1.86 0.83-1.97 1.67-3.93 2.52-5.89 1.09-2.56 2.18-5.12 3.26-7.69 0.398-0.937 0.398-0.937 0.803-1.89 1.95-4.62 3.72-9.29 5.39-14 6.61-18.6 6.61-18.6 15.9-18.4z" fill="#090D0F"/>
<path transform="translate(933,146)" d="m0 0c3.96 0.33 7.92 0.66 12 1v111h-12v-112z" fill="#000102"/>
<path transform="translate(817 182)" d="m0 0c5.16 4.34 7.87 8.84 9.75 15.3 0.241 3.04 0.241 3.04 0.227 6.28-1.51e-4 1.22-3.02e-4 2.44-4.58e-4 3.7-0.0103 1.3-0.0206 2.61-0.0313 3.95-0.00373 1.36-0.00658 2.72-0.00858 4.08-0.0076 3.56-0.0272 7.12-0.0494 10.7-0.0205 3.64-0.0296 7.28-0.0397 10.9-0.0214 7.13-0.0565 14.3-0.0977 21.4h-12c-0.0146-1.65-0.0292-3.31-0.0442-5.01-0.0581-6.16-0.135-12.3-0.218-18.5-0.0348-2.66-0.0612-5.32-0.084-7.98-0.0337-3.83-0.086-7.67-0.142-11.5-0.00639-1.18-0.0128-2.37-0.0194-3.59-0.115-6.49-0.619-11.6-3.49-17.4-5.54-4.4-12.2-4.73-19-4-4.67 1.39-7.4 3.24-10.4 7.06-1.63 2.88-1.63 2.88-2.56 5.94h-3c-1.42-3.32-2.39-6.44-3-10 1.98 0.66 3.96 1.32 6 2-0.33-0.33-0.66-0.66-1-1 0.438-2.06 0.438-2.06 1-4-0.66-0.33-1.32-0.66-2-1 11.4-10.8 25.7-14.9 40.2-7.31z" fill="#000102"/>
<path transform="translate(664,178)" d="m0 0c1 1 1 1 1.1 3.72-0.0116 1.1-0.0232 2.2-0.0352 3.34-0.00902 1.1-0.018 2.21-0.0273 3.35-0.0116 0.855-0.0232 1.71-0.0352 2.59-0.857 0.0258-1.71 0.0516-2.6 0.0781-8.02 0.398-13.5 0.9-19.3 6.86-2.16 3.95-2.25 8.07-2.24 12.5 7.55e-5 1.06 1.51e-4 2.12 2.29e-4 3.21 0.00516 1.13 0.0103 2.27 0.0156 3.43 0.00212 1.75 0.00212 1.75 0.00429 3.54 0.00559 3.73 0.0181 7.46 0.0309 11.2 0.00502 2.53 0.00958 5.06 0.0137 7.59 0.011 6.2 0.0283 12.4 0.0488 18.6h-13v-78h12v8c0.652-0.554 1.3-1.11 1.98-1.68 0.874-0.724 1.75-1.45 2.65-2.2 0.859-0.719 1.72-1.44 2.6-2.18 5.48-3.84 10.3-4.27 16.8-3.95z" fill="#000102"/>
<path transform="translate(1424,180)" d="m0 0h13v78h-12c-2.3-14.3-2.27-28.5-2.21-42.9 0.0154-3.35 0.0208-6.7 0.0201-10 3.36e-4 -3.22 0.00915-6.45 0.0178-9.67 0.00111-1.2 0.00223-2.4 0.00337-3.64 0.00638-1.11 0.0128-2.21 0.0193-3.35 0.00381-0.972 0.00762-1.94 0.0116-2.95 0.134-2.45 0.134-2.45 1.13-5.45z" fill="#030407"/>
<path transform="translate(716,180)" d="m0 0h12c0.33 2.64 0.66 5.28 1 8h4v2c-2.31 0.66-4.62 1.32-7 2 0.309 0.763 0.619 1.53 0.938 2.31 1.6 4.04 2.19 7.02 2.18 11.4-7.55e-5 1.16-1.51e-4 2.32-2.29e-4 3.52-0.00516 1.25-0.0103 2.51-0.0156 3.8-0.00141 1.28-0.00283 2.57-0.00429 3.89-0.00381 3.41-0.0136 6.82-0.0247 10.2-0.0102 3.48-0.0148 6.96-0.0198 10.4-0.0107 6.82-0.0283 13.6-0.0488 20.5h-13c-0.992-11.5-1.16-22.9-1.12-34.5 8.86e-4 -0.924 0.00177-1.85 0.00269-2.8 0.0153-13.6 0.233-27.1 1.12-40.7z" fill="#020306"/>
<path transform="translate(681,180)" d="m0 0h12v78h-12v-78z" fill="#000002"/>
<path transform="translate(1260,180)" d="m0 0h13v4h-2c0.139 3.6 0.287 7.21 0.438 10.8 0.0393 1.02 0.0786 2.05 0.119 3.1 0.0628 1.47 0.0628 1.47 0.127 2.98 0.0367 0.906 0.0733 1.81 0.111 2.75 0.126 2.51 0.126 2.51 1.21 5.36 0.0871 1.58 0.118 3.16 0.114 4.75-7.55e-5 0.961-1.51e-4 1.92-2.29e-4 2.91-0.00516 1.03-0.0103 2.07-0.0156 3.13-0.00141 1.06-0.00283 2.12-0.00429 3.22-0.0056 3.39-0.0182 6.79-0.0309 10.2-0.00501 2.3-0.00958 4.6-0.0137 6.9-0.011 5.64-0.0278 11.3-0.0488 16.9-2 1-2 1-13 1v-78z" fill="#020205"/>
<path transform="translate(1137,182)" d="m0 0c3.77 2.65 6.9 5.61 10 9 0.535 0.579 1.07 1.16 1.62 1.75 8.27 10.2 6.7 24 6.38 36.2h-1c-0.0673-0.99-0.0673-0.99-0.136-2-0.213-3.02-0.444-6.04-0.677-9.06-0.0703-1.04-0.141-2.08-0.213-3.15-0.639-8.06-1.66-14.2-7.97-19.8-1.67-1.67-3.33-3.33-5-5-0.66 0.33-1.32 0.66-2 1-0.658 3.03-0.658 3.03-1 6-0.615-0.422-1.23-0.843-1.86-1.28-0.808-0.548-1.62-1.1-2.45-1.66-1.2-0.818-1.2-0.818-2.43-1.65-5.35-3.33-11.2-2.84-17.3-2.41-5.49 1.73-8.85 5.31-12 10-5.74 11.5-4.37 24.6-3 37-0.66-0.33-1.32-0.66-2-1-1.76-5.66-1.35-12.1-1.52-18-0.0342-0.873-0.0683-1.75-0.104-2.65-0.0251-0.796-0.0501-1.59-0.0759-2.41-0.138-2.21-0.138-2.21-2.3-3.98-0.66 0.66-1.32 1.32-2 2-2.62 0.625-2.62 0.625-5 1v9h-1c-0.658-12.5 0.778-22.2 9.03-32 12-12.2 28.7-13.9 44-7z" fill="#010201"/>
<path transform="translate(1468,210)" d="m0 0h1c0.0258 1.24 0.0516 2.49 0.0781 3.77 0.324 10.7 0.972 19.9 6.8 29.2 4.91 4.62 10.5 6.18 17.1 6 6.14-1.14 10.7-3.5 15-8 1.27-2.31 2.12-4.5 3-7h12c-1.27 8.1-3.73 13.3-10 18.7-7.82 5.69-17.3 8.48-27 7.27-7.69-1.46-15.3-4.6-20.4-10.7-1.11-1.65-1.11-1.65-2.55-4.28 0.99-0.495 0.99-0.495 2-1-0.33-0.66-0.66-1.32-1-2 1.32 0.33 2.64 0.66 4 1 0.08-4.4 0.0346-8.75-0.258-13.1-0.0491-0.737-0.0981-1.47-0.149-2.23-0.102-1.47-0.21-2.95-0.326-4.42-0.317-4.59-0.0702-8.68 0.732-13.2z" fill="#000100"/>
<path transform="translate(357 223)" d="m0 0c2.44 0.188 2.44 0.188 3.44 1.19 0.123 1.6 0.178 3.2 0.205 4.8 0.0199 1.02 0.0399 2.04 0.0604 3.09 0.0167 1.11 0.0334 2.22 0.0506 3.36 0.0208 1.13 0.0416 2.26 0.063 3.43 0.0656 3.63 0.124 7.26 0.183 10.9 0.0432 2.45 0.0868 4.9 0.131 7.36 0.107 6.03 0.209 12.1 0.307 18.1 1.26 0.0376 1.26 0.0376 2.55 0.0759 3.12 0.095 6.24 0.194 9.35 0.296 1.35 0.0434 2.7 0.0851 4.05 0.125 1.94 0.0576 3.88 0.122 5.82 0.186 1.17 0.0367 2.34 0.0733 3.54 0.111 2.68 0.205 2.68 0.205 3.68 1.21 0.0408 2 0.0425 4 0 6-5.09 0.0247-10.2 0.0429-15.3 0.0549-1.73 0.00504-3.46 0.0119-5.2 0.0205-2.49 0.0121-4.97 0.0178-7.46 0.0222-0.777 0.00516-1.55 0.0103-2.35 0.0156-5.49 5.75e-4 -5.49 5.75e-4 -7.72-1.11-0.0463-7.4-0.0819-14.8-0.104-22.2-0.0104-3.43-0.0246-6.87-0.0473-10.3-0.0258-3.95-0.0356-7.89-0.0444-11.8-0.0103-1.24-0.0206-2.47-0.0313-3.75-1.51e-4 -1.14-3.02e-4 -2.28-4.58e-4 -3.46-0.00444-1.01-0.00888-2.02-0.0135-3.06 0.349-3.49 1.33-4.34 4.8-4.59z" fill="#080C0E"/>
<path transform="translate(153 229)" d="m0 0c0.923-0.00129 1.85-0.00258 2.8-0.00391 0.967 0.00387 1.93 0.00773 2.93 0.0117 0.959-0.00387 1.92-0.00773 2.91-0.0117 0.926 0.00129 1.85 0.00258 2.8 0.00391 1.27 0.00169 1.27 0.00169 2.56 0.00342 2.29 0.126 4.19 0.382 6.35 1.13 1.77 2.11 1.77 2.11 3.38 4.75 0.544 0.861 1.09 1.72 1.65 2.61 0.977 2.64 0.977 2.64 0.266 5.28-1.29 2.36-1.29 2.36-3.29 5.36-8.72 2.54-19 2.77-28 2-0.99-0.66-1.98-1.32-3-2-0.363-3.12-0.363-3.12-0.312-6.88 0.00387-1.23 0.00773-2.47 0.0117-3.74 0.276-3.1 0.566-4.84 2.3-7.38 2.41-1.21 3.96-1.13 6.65-1.13z" fill="#FCFDFF"/>
<path transform="translate(99.8 230)" d="m0 0c0.998-0.0329 2-0.0657 3.03-0.0996 7.41-0.0543 7.41-0.0543 11.3 3 0.922 1.25 0.922 1.25 1.86 2.54 0.33 0.33 0.66 0.66 1 1 0.0724 2.02 0.0838 4.04 0.0625 6.06-0.00902 1.1-0.018 2.21-0.0273 3.35-0.0116 0.855-0.0232 1.71-0.0352 2.59-6.13 4.35-11 4.53-18.4 4.31-1.51-0.0145-1.51-0.0145-3.06-0.0293-7.4-0.115-7.4-0.115-8.57-1.28-0.25-3.14-0.185-6.29-0.188-9.44-0.0122-0.885-0.0245-1.77-0.0371-2.68-0.00193-0.846-0.00387-1.69-0.00586-2.56-0.00411-0.779-0.00822-1.56-0.0125-2.36 0.756-6.08 8.49-4.37 13.1-4.39z" fill="#FCFDFF"/>
<path transform="translate(257,128)" d="m0 0c3.29-0.0579 6.58-0.0936 9.88-0.125 0.937-0.0168 1.87-0.0335 2.84-0.0508 0.896-0.00645 1.79-0.0129 2.71-0.0195 0.827-0.0105 1.65-0.0209 2.51-0.0317 2.06 0.227 2.06 0.227 4.06 2.23 0.227 2.34 0.227 2.34 0.195 5.23-0.00645 1.03-0.0129 2.06-0.0195 3.12-0.0168 1.08-0.0335 2.16-0.0508 3.27-0.00902 1.09-0.018 2.18-0.0273 3.3-0.0236 2.69-0.0566 5.39-0.0977 8.08-3.29 0.0579-6.58 0.0936-9.88 0.125-1.41 0.0251-1.41 0.0251-2.84 0.0508-1.34 0.00967-1.34 0.00967-2.71 0.0195-0.827 0.0105-1.65 0.0209-2.51 0.0317-2.06-0.227-2.06-0.227-4.06-2.23-0.227-2.34-0.227-2.34-0.195-5.23 0.00645-1.03 0.0129-2.06 0.0195-3.12 0.0168-1.08 0.0335-2.16 0.0508-3.27 0.00902-1.09 0.018-2.18 0.0273-3.3 0.0236-2.69 0.0566-5.39 0.0977-8.08z" fill="#090D0F"/>
<path transform="translate(855,227)" d="m0 0h2c0.33 4.95 0.66 9.9 1 15 0.66-1.32 1.32-2.64 2-4 0.392 0.928 0.784 1.86 1.19 2.81 2.06 3.62 2.98 4.64 6.81 6.19 4.99 0.839 9.94 1.05 15 1v2l-2 1h7c-0.33 1.98-0.66 3.96-1 6-9.91 3.48-18.3 4.58-28 0-5.04-2.87-9.18-6.26-11.6-11.6-0.856-4.94 1.01-9.72 2.59-14.4h2c0.33-0.66 0.66-1.32 1-2v2h2v-4z" fill="#000001"/>
<path transform="translate(205 223)" d="m0 0c2.44 0.188 2.44 0.188 3.44 1.19 0.0938 1.81 0.117 3.62 0.114 5.44-7.55e-5 1.16-1.51e-4 2.32-2.29e-4 3.52-0.00516 1.26-0.0103 2.53-0.0156 3.83-0.00141 1.29-0.00283 2.57-0.00429 3.9-0.00382 3.42-0.0137 6.85-0.0247 10.3-0.0102 3.49-0.0148 6.98-0.0198 10.5-0.0107 6.86-0.0278 13.7-0.0488 20.6-2.33 0.0424-4.67 0.0409-7 0-1.7-1.7-1.14-3.89-1.15-6.22-0.00638-1.11-0.0128-2.23-0.0193-3.38-0.00111-1.21-0.00223-2.43-0.00337-3.68-0.00333-1.24-0.00666-2.47-0.0101-3.75-0.00507-2.62-0.00741-5.24-0.00725-7.87 8.14e-5 -2.7-0.00688-5.39-0.0205-8.09-0.0182-3.87-0.0232-7.74-0.0247-11.6-0.00719-1.21-0.0144-2.42-0.0218-3.67 0.00308-1.12 0.00615-2.24 0.00932-3.39-0.00143-0.987-0.00285-1.97-0.00432-2.99 0.363-3.46 1.37-4.3 4.81-4.55z" fill="#090D0F"/>
<path transform="translate(1463,198)" d="m0 0c0.33 1.98 0.66 3.96 1 6 0.66-0.99 1.32-1.98 2-3 2 1 2 1 3 3 0.00434 1.49-0.0582 2.98-0.156 4.47-0.0529 0.9-0.106 1.8-0.16 2.73-0.121 1.88-0.243 3.76-0.367 5.64-0.302 5.19-0.25 10.1 0.43 15.2 0.301 2.29 0.42 4.56 0.441 6.87 0.0142 0.731 0.0284 1.46 0.043 2.21-0.23 1.85-0.23 1.85-2.23 3.85v-3c-0.99 0.495-0.99 0.495-2 1 0.33 0.66 0.66 1.32 1 2-2.36-0.18-2.36-0.18-5-1-6.64-11.3-6.55-27.6-3.71-40 0.892-2.52 2.63-6 5.71-6z" fill="#000002"/>
<path transform="translate(896,201)" d="m0 0h1v13c-3.49 0.873-6.29 1.19-9.86 1.32-1.12 0.0419-2.23 0.0838-3.38 0.127-1.16 0.0393-2.32 0.0786-3.51 0.119-1.17 0.0432-2.35 0.0864-3.56 0.131-2.9 0.106-5.79 0.208-8.69 0.307v2c1.27-0.248 1.27-0.248 2.56-0.5 3.53-0.513 6.88-0.571 10.4-0.5l1 2c-2.97 0.33-5.94 0.66-9 1v2c-1.95 0.618-3.91 1.24-5.86 1.86-2.97 1.59-4.32 3.32-6.14 6.14-0.9 3.33-0.9 3.33-1.25 6.81-0.15 1.16-0.299 2.32-0.453 3.52-0.147 1.32-0.147 1.32-0.297 2.67-0.66-0.33-1.32-0.66-2-1v-15h-2v4h-5c-0.049 0.699-0.098 1.4-0.148 2.12-0.0748 0.91-0.15 1.82-0.227 2.76-0.104 1.36-0.104 1.36-0.211 2.74-0.414 2.38-0.414 2.38-2.41 4.38-0.649-8.34-0.755-14.9 4.17-21.9 7.09-7.97 17.6-10.2 27.9-10.9 5.32-0.211 10.6-0.193 16-0.117 0.33-2.97 0.66-5.94 1-9z" fill="#000201"/>
<path transform="translate(1182,242)" d="m0 0c3.34 1.05 4.96 1.96 7.38 4.56 3.24 3.01 5.29 3.12 9.62 3.44 0.99 0.33 1.98 0.66 3 1v2c1.11-0.351 2.23-0.701 3.38-1.06 3.62-0.938 3.62-0.938 5.62 0.0625v-2h3c0.66-0.66 1.32-1.32 2-2h2c0.66-0.66 1.32-1.32 2-2v2c0.99 0.33 1.98 0.66 3 1-2.07 5.17-5.68 6.69-10.4 8.98-7.47 2.95-14.9 2.8-22.3 0.0625-5.78-2.7-10.7-6.72-14.2-12v-2c3.75-1.12 3.75-1.12 6 0v-2z"/>
<path transform="translate(764,183)" d="m0 0 1 2c-1.98 0.66-3.96 1.32-6 2 0.66 0.66 1.32 1.32 2 2h-3v2c-0.619-0.165-1.24-0.33-1.88-0.5-7.22-1.15-14.7-1.47-21.1 2.5-2.25 2.17-4.17 4.47-6 7-1.95-2.92-2.45-4.63-3-8 3-2 3-2 7-2-0.99-0.33-1.98-0.66-3-1 1.44-4.32 3.85-5.58 7.7-7.83 8.01-2.85 18.5-1.41 26.3 1.83z"/>
<path transform="translate(1584,226)" d="m0 0c6.52 0.615 6.52 0.615 8.94 2.56 0.351 0.474 0.701 0.949 1.06 1.44 0.66-0.33 1.32-0.66 2-1v2h2c0.642 7.8 0.804 13.4-4.2 19.7-2.36 1.69-3.96 1.54-6.8 1.29v-6c-1.98 0.99-1.98 0.99-4 2v2h-2v-2c-0.66-0.33-1.32-0.66-2-1 0.804-0.516 1.61-1.03 2.44-1.56 3.35-3.19 3.41-4.86 3.56-9.44-0.22-3.02-0.582-6-1-9v-1z" fill="#000102"/>
<path transform="translate(316,234)" d="m0 0c3.24 2.68 4.5 5.93 6.12 9.75 0.777 1.79 0.777 1.79 1.57 3.61 1.32 3.68 1.9 6.77 2.3 10.6-2.23 0.223-4.46 0.428-6.69 0.625-1.86 0.174-1.86 0.174-3.76 0.352-3.48 0.023-5.48-0.436-8.55-1.98 1.6-8.26 3.64-16.3 9-23z" fill="#FCFDFF"/>
<path transform="translate(1536,235)" d="m0 0h12c0.536 1.24 1.07 2.47 1.62 3.75 2.77 5.48 6.23 7.46 11.9 9.56 5.75 1.29 11.6 0.34 17.4-0.312v2h-3v2c-8.83 0.564-15.8-0.737-24-4v2h-2v2c-2.62 0.438-2.62 0.438-6 0-3.79-3.15-6.74-7.21-8-12v-5z" fill="#000002"/>
<path transform="translate(172)" d="m0 0h3v2c1.13-0.327 2.27-0.655 3.44-0.992 4.57-1.14 8.87-1.24 13.6-1.13 1.16 0.0135 1.16 0.0135 2.35 0.0273 1.88 0.0233 3.77 0.0591 5.65 0.0977v3c-14.4 7.61-29.1 6.63-45 6 3.4-3.63 5.93-4.9 10.8-6.25 1.17-0.335 2.34-0.67 3.55-1.02 0.892-0.242 1.78-0.485 2.7-0.734v-1z" fill="#344459"/>
<path transform="translate(1341,226)" d="m0 0c6.15 0.586 6.15 0.586 8 1 0.33 0.66 0.66 1.32 1 2 2.02 0.652 2.02 0.652 4 1 1.52 10.6 1.52 10.6-1 15-3.38 0.125-3.38 0.125-7 0-0.66-0.66-1.32-1.32-2-2v-2c-0.99 1.98-1.98 3.96-3 6-1.29-2.58-0.874-3.98-0.5-6.81 0.426-3.7 0.357-6.55-0.5-10.2 0.438-2.31 0.438-2.31 1-4z" fill="#010103"/>
<path transform="translate(1503,186)" d="m0 0c2.64 0.33 5.28 0.66 8 1 0.33 1.32 0.66 2.64 1 4 1.65-0.33 3.3-0.66 5-1 3.87 5.37 5.64 9.37 6 16h-12c-4.03-8.07-4.03-8.07-3.88-12.5 0.875-2.5 0.875-2.5 2.88-3.5-2.31-0.33-4.62-0.66-7-1v-3z" fill="#000001"/>
<path transform="translate(1435,151)" d="m0 0c2.49 1.52 2.87 2.65 3.88 5.38 0.162 3.4-0.915 4.91-2.88 7.62-1 1-1 1-4.81 1.31-3.06-0.0495-4.03-0.213-6.69-1.94-1.96-3.1-2.1-4.77-1.5-8.38 3.13-4.95 6.63-4.6 12-4z" fill="#000002"/>
<path transform="translate(1271,151)" d="m0 0c2.69 2.19 2.94 3.58 3.44 7-0.438 3-0.438 3-1.94 5.38-3.74 2.43-6.07 2.12-10.5 1.62-2-1.06-2-1.06-3-3-0.491-3.86-0.56-6.09 1.5-9.44 3.78-2.36 6.08-2.12 10.5-1.56z" fill="#000102"/>
<path transform="translate(687 151)" d="m0 0c3.39 0.0488 4 0.22 6.75 2.5 1.78 3.56 1.66 5.13 0.438 8.88-1.06 1.88-1.06 1.88-3 3-3.59 0.539-6.79 0.742-9.94-1.19-1.4-2.39-1.93-4.03-2.06-6.81 2.95-5.9 2.95-5.9 7.81-6.38z" fill="#000102"/>
<path transform="translate(896,222)" d="m0 0h1v29c-1.98 0.99-1.98 0.99-4 2-0.701 0.536-1.4 1.07-2.12 1.62-1.88 1.38-1.88 1.38-3.88 1.38 0.33-1.65 0.66-3.3 1-5-1.33 0.248-1.33 0.248-2.69 0.5-5.73 0.841-11.5 0.578-17.3 0.5v-1c1.59-0.0387 1.59-0.0387 3.21-0.0781 1.39-0.0563 2.78-0.114 4.16-0.172 0.699-0.0142 1.4-0.0284 2.12-0.043 2.28-0.0674 2.28-0.0674 5.51-0.707 1.38-1.86 1.38-1.86 2-4 1.97-1.37 3.98-2.7 6-4 3.35-2.51 3.95-3.66 4.61-7.89 0.066-1.45 0.112-2.91 0.141-4.36 0.0445-1.12 0.0445-1.12 0.0898-2.26 0.0704-1.83 0.118-3.66 0.16-5.49z" fill="#020405"/>
<path transform="translate(1008,152)" d="m0 0c1.79-0.027 3.58-0.0464 5.38-0.0625 0.998-0.0116 2-0.0232 3.02-0.0352 2.6 0.0977 2.6 0.0977 4.6 1.1v97h-1c-0.33-31-0.66-62-1-94h-9c-0.66-0.33-1.32-0.66-2-1v-3z" fill="#070A0C"/>
<path transform="translate(770 183)" d="m0 0c2.25 2.25 4.22 4.58 6.12 7.12 1.65-0.33 3.3-0.66 5-1-0.33 0.598-0.66 1.2-1 1.81-1.21 2.24-1.21 2.24-1 5.19-2.92-1.07-4.78-1.78-7-4-2.11 0.319-2.11 0.319-4 1-0.0825-0.907-0.165-1.81-0.25-2.75-0.898-3.89-1.56-4.89-4.75-7.25-3.04-0.719-6.08-0.925-9.19-1.12-2.96-0.216-5.86-0.502-8.81-0.875-0.33-0.66-0.66-1.32-1-2 9-2.25 18-1.23 25.9 3.88z" fill="#010303"/>
<path transform="translate(896,201)" d="m0 0h1v13c-3.98 0.995-7.17 1.1-11.2 1.06-1.26-0.00902-2.53-0.018-3.83-0.0273-0.964-0.0116-1.93-0.0232-2.92-0.0352v-1c-4.14-0.21-4.14-0.21-8 1-2.04 0.229-4.08 0.38-6.12 0.523-2.28 0.356-2.28 0.356-3.88 3.48-0.66-0.33-1.32-0.66-2-1v-3c12.2-4.58 23.1-5.19 36-5 0.33-2.97 0.66-5.94 1-9z" fill="#010103"/>
<path transform="translate(1393,247)" d="m0 0c0.562 0.164 1.12 0.327 1.7 0.496 2.43 0.533 4.57 0.603 7.05 0.566 1.4-0.0206 2.81-0.0412 4.25-0.0625v10c-4.46 1.81-7.31 2.12-12 1v-3c-0.99-0.33-1.98-0.66-3-1 0.99-0.33 1.98-0.66 3-1 1.69-2 1.69-2 3-4-1.32-0.33-2.64-0.66-4-1v-2z" fill="#000001"/>
<path transform="translate(1585,190)" d="m0 0c3.04-0.0823 5.07 0.0239 8 1 2.03 3.98 3 6.51 3 11-3.63 0.33-7.26 0.66-11 1-1.49-4.47-1.49-8.53 0-13z" fill="#000002"/>
<path transform="translate(579,154)" d="m0 0c0.922 0.108 0.922 0.108 1.86 0.219 1.21 0.139 1.21 0.139 2.45 0.281 1.2 0.139 1.2 0.139 2.43 0.281 2.38 0.267 2.38 0.267 5.26 0.219 1.56 1.44 1.56 1.44 3 3 0.66 0.33 1.32 0.66 2 1v2c-0.949-0.186-1.9-0.371-2.88-0.562-3.02-0.724-3.02-0.724-5.12 0.562 0.99 1.49 0.99 1.49 2 3-7.75 1.12-7.75 1.12-10 0-0.414-2.29-0.414-2.29-0.625-5.06-0.0748-0.919-0.15-1.84-0.227-2.79-0.049-0.71-0.098-1.42-0.148-2.15z"/>
<path transform="translate(1187,242)" d="m0 0c3.9 0.578 5.98 2.58 9 5 6.47 2.14 13.8 1.62 20-1-0.66 1.65-1.32 3.3-2 5-0.99-0.33-1.98-0.66-3-1v2c-4.45 0.495-4.45 0.495-9 1v-2c-0.763 0.206-1.53 0.412-2.31 0.625-2.69 0.375-2.69 0.375-5.69-1.62-0.99-0.33-1.98-0.66-3-1v-2c-1.32-0.66-2.64-1.32-4-2v-3z" fill="#020304"/>
<path transform="translate(535,152)" d="m0 0c4.81-0.0494 9.61-0.0857 14.4-0.11 1.64-0.0101 3.27-0.0237 4.91-0.041 2.35-0.0242 4.7-0.0356 7.04-0.0444 0.733-0.0103 1.47-0.0206 2.22-0.0313 1.81-4.01e-4 3.61 0.104 5.41 0.227 0.66 0.66 1.32 1.32 2 2-3.07 1.53-6.27 1.12-9.63 1.1-1.13-0.00212-1.13-0.00212-2.28-0.00429-2.4-0.0056-4.81-0.0182-7.21-0.0309-1.63-0.00501-3.26-0.00958-4.89-0.0137-4-0.011-7.99-0.0283-12-0.0488v-3z" fill="#020406"/>
<path transform="translate(138,295)" d="m0 0c0.66 0.33 1.32 0.66 2 1v15h8c0.66 1.32 1.32 2.64 2 4-3.71 0.206-5.74-0.317-9-2h-4c-0.0269-2.63-0.0468-5.25-0.0625-7.88-0.00838-0.746-0.0168-1.49-0.0254-2.26-0.0254-5.64-0.0254-5.64 1.09-7.86z" fill="#344459"/>
<path transform="translate(247 292)" d="m0 0c1.09 0.227 2.19 0.454 3.31 0.688-0.33 0.66-0.66 1.32-1 2-1.65-0.33-3.3-0.66-5-1 0.33 0.99 0.66 1.98 1 3-0.0874 2.58-0.229 5.12-0.438 7.69-0.0522 0.702-0.104 1.4-0.158 2.13-0.129 1.73-0.266 3.46-0.404 5.19-0.99-0.33-1.98-0.66-3-1-0.807-3.58-1.19-6.96-1.25-10.6-0.0258-0.941-0.0516-1.88-0.0781-2.85 0.328-2.52 0.328-2.52 1.61-4.38 1.71-1.14 1.71-1.14 5.4-0.832z" fill="#344459"/>
<path transform="translate(196,304)" d="m0 0c1.65 0.33 3.3 0.66 5 1 0.25 5.62 0.25 5.62-2 9-2.75 0.363-2.75 0.363-6 0.312-1.61-0.0058-1.61-0.0058-3.25-0.0117-2.75-0.301-2.75-0.301-4.75-2.3 1-1 1-1 3.5-1.1 1.51 0.0174 1.51 0.0174 3.06 0.0352 1.01 0.00902 2.02 0.018 3.07 0.0273 1.17 0.0174 1.17 0.0174 2.37 0.0352-0.165-0.598-0.33-1.2-0.5-1.81-0.5-2.19-0.5-2.19-0.5-5.19z" fill="#36465B"/>
<path transform="translate(1511,234)" d="m0 0h12c-0.66 2.97-1.32 5.94-2 9-0.33-0.99-0.66-1.98-1-3-2.97-0.33-5.94-0.66-9-1-0.33 0.99-0.66 1.98-1 3-0.125-5.75-0.125-5.75 1-8z" fill="#040607"/>
<path transform="translate(767,181)" d="m0 0c2.04 1.54 3.38 3 5 5-2.48-0.495-2.48-0.495-5-1v-2c-0.661-0.0501-1.32-0.1-2-0.152-2.98-0.231-5.96-0.477-8.93-0.723-1.04-0.0786-2.08-0.157-3.15-0.238-0.989-0.0838-1.98-0.168-3-0.254-0.916-0.0733-1.83-0.147-2.78-0.222-0.704-0.136-1.41-0.271-2.13-0.411-0.33-0.66-0.66-1.32-1-2 8.01-2 15.5-1.31 23 2z" fill="#030506"/>
<path transform="translate(1578,179)" d="m0 0c-4.12 2.75-7.8 2.1-12.6 1.92-3.76-0.0889-5.23-0.0683-8.45 2.08-2 1.19-2 1.19-4 2-0.99-0.33-1.98-0.66-3-1h2v-3c9.08-2.85 16.6-3.92 26-2z" fill="#030507"/>
<path transform="translate(267,296)" d="m0 0c0.33 0.99 0.66 1.98 1 3h-2c0.33 3.3 0.66 6.6 1 10 5.94 1.49 5.94 1.49 12 3-0.33 0.66-0.66 1.32-1 2-2.69 0.875-2.69 0.875-6 1-3.19-1.75-3.19-1.75-6-4-0.619-0.454-1.24-0.908-1.88-1.38-1.71-2.47-1.32-4.71-1.12-7.62h2c0.144-0.804 0.289-1.61 0.438-2.44 0.562-2.56 0.562-2.56 1.56-3.56z" fill="#344459"/>
<path transform="translate(299,305)" d="m0 0c1.32 0.33 2.64 0.66 4 1-0.875 6.88-0.875 6.88-2 8-1.85 0.0723-3.71 0.0838-5.56 0.0625-1.01-0.00902-2.02-0.018-3.07-0.0273-0.782-0.0116-1.56-0.0232-2.37-0.0352-0.66-1.32-1.32-2.64-2-4 3.96 0.33 7.92 0.66 12 1-0.33-1.98-0.66-3.96-1-6z" fill="#37475B"/>
<path transform="translate(1435,151)" d="m0 0c2.06 1.25 2.06 1.25 3 3-0.312 2.19-0.312 2.19-1 4h-2c-0.66-0.99-1.32-1.98-2-3-4.13 0.567-4.13 0.567-8 2-1.13 2.02-1.13 2.02-2 4-0.314-3.46-0.38-5.4 1.5-8.38 3.74-2.43 6.07-2.12 10.5-1.62z" fill="#010202"/>
<path transform="translate(1476,246)" d="m0 0c3.35 0.503 6.39 1.13 9.62 2.19 5.53 1.47 10.9-0.00112 16.4-1.19v3c-3.24 1.62-6.76 1.18-10.3 1.19-0.76 0.0122-1.52 0.0245-2.3 0.0371-4.2 0.0109-7.63-0.106-11.4-2.22-0.66-0.99-1.32-1.98-2-3z" fill="#000001"/>
<path transform="translate(1562,211)" d="m0 0c13.8 2.5 13.8 2.5 20 5 0.33 0.66 0.66 1.32 1 2-8.79 0.149-8.79 0.149-13-1-0.33-0.33-0.66-0.66-1-1-0.928-0.217-0.928-0.217-1.88-0.438-2.12-0.562-2.12-0.562-5.12-2.56v-2z" fill="#010204"/>
<path transform="translate(226,304)" d="m0 0c1.32 0.66 2.64 1.32 4 2 0.482 5.42 0.482 5.42-1.56 7.88-3.38 1.56-5.75 1.59-9.44 1.12l-4-4c4.29 0.33 8.58 0.66 13 1-0.99-2.31-1.98-4.62-3-7 0.33-0.33 0.66-0.66 1-1z" fill="#344459"/>
<path transform="translate(1306,244)" d="m0 0c2.93 0.43 5.06 1.03 7.69 2.44 4.32 2.04 8.63 2.78 13.3 3.56v1c-2.06 0.25-4.12 0.474-6.19 0.688-1.72 0.191-1.72 0.191-3.48 0.387-3.76-0.0839-5.41-0.742-8.33-3.07-0.33-0.99-0.66-1.98-1-3-0.66-0.66-1.32-1.32-2-2z" fill="#020304"/>
<path transform="translate(256,296)" d="m0 0h2v17c-0.66 0.33-1.32 0.66-2 1-1.18-3.53-1.13-6.4-1.12-10.1-0.00387-1.89-0.00387-1.89-0.00781-3.82 0.133-3.05 0.133-3.05 1.13-4.05z" fill="#344459"/>
<path transform="translate(1468,210)" d="m0 0h1c0.0606 1.26 0.121 2.51 0.184 3.8 0.418 8.42 0.854 16.8 1.82 25.2-0.66-0.33-1.32-0.66-2-1-2.23-9.39-2.58-18.5-1-28z" fill="#080B0D"/>
<path transform="translate(1180,269)" d="m0 0c1.32 0.953 2.63 1.91 3.94 2.88 0.731 0.534 1.46 1.07 2.21 1.62 1.85 1.51 1.85 1.51 2.85 3.51-0.615-0.0722-1.23-0.144-1.86-0.219-0.808-0.0928-1.62-0.186-2.45-0.281-0.801-0.0928-1.6-0.186-2.43-0.281-2.38-0.267-2.38-0.267-5.26-0.219-0.66 0.66-1.32 1.32-2 2 0.574-3.87 2.49-6.08 5-9z" fill="#020304"/>
<path transform="translate(1479,250)" d="m0 0h23c-0.33 0.66-0.66 1.32-1 2h-5v2h-10v-2c-2.31-0.33-4.62-0.66-7-1v-1z" fill="#090D0F"/>
<path transform="translate(896,201)" d="m0 0h1v13c-3.98 0.995-7.17 1.1-11.2 1.06-1.26-0.00902-2.53-0.018-3.83-0.0273-0.964-0.0116-1.93-0.0232-2.92-0.0352 4.08-2.72 7.58-2.43 12.4-2.66 1.3-0.17 1.3-0.17 2.62-0.344 1.15-2.3 1.31-4.08 1.56-6.62 0.0838-0.817 0.168-1.63 0.254-2.48 0.0909-0.94 0.0909-0.94 0.184-1.9z" fill="#080C0E"/>
<path transform="translate(1213,278)" d="m0 0v3c-6.67 2.22-14.2 1.01-21 0 3.5-2.33 4.83-2.19 8.94-2.06 4.19 0.12 8-0.938 12.1-0.938z" fill="#000001"/>
<path transform="translate(856,192)" d="m0 0c1.94 0.562 1.94 0.562 4 2 0.75 3.62 0.75 3.62 1 7h-8v-2h2c0.33-2.31 0.66-4.62 1-7z" fill="#000001"/>
<path transform="translate(1150,199)" d="m0 0c3.45 2.3 3.79 3.69 4.65 7.63 0.63 4.29 0.555 8.55 0.474 12.9-0.00902 0.918-0.018 1.84-0.0273 2.78-0.0233 2.24-0.0561 4.48-0.0977 6.72h-1c-0.0501-0.676-0.1-1.35-0.152-2.05-0.232-3.07-0.478-6.14-0.723-9.2-0.0786-1.06-0.157-2.13-0.238-3.22-0.0838-1.02-0.168-2.05-0.254-3.11-0.11-1.41-0.11-1.41-0.222-2.86-0.413-2.58-1.22-4.27-2.41-6.57v-3z" fill="#070B0D"/>
<path transform="translate(891,180)" d="m0 0c4.5 0.957 7.01 2.54 10 6-3.62 1.21-4.64 0.543-8-1v-2c-1.65-0.33-3.3-0.66-5-1 0.99-0.66 1.98-1.32 3-2z" fill="#030405"/>
<path transform="translate(1108,247)" d="m0 0c4.29 0.99 8.58 1.98 13 3v1c-3.63 0.33-7.26 0.66-11 1-0.66-1.65-1.32-3.3-2-5z" fill="#010204"/>
<path transform="translate(1187,242)" d="m0 0c3.23 0.557 5.02 1.33 7 4v4c-0.99-0.33-1.98-0.66-3-1v-2c-1.32-0.66-2.64-1.32-4-2v-3z" fill="#030506"/>
<path transform="translate(781,190)" d="m0 0c-0.99 1.49-0.99 1.49-2 3v3c-2.44-0.75-2.44-0.75-5-2-0.812-2.12-0.812-2.12-1-4 5.75-1.12 5.75-1.12 8 0z" fill="#080C0E"/>
<path transform="translate(1130,251)" d="m0 0c-1.65 0.33-3.3 0.66-5 1v2h-10v-2c2.12-0.362 4.25-0.714 6.38-1.06 1.78-0.296 1.78-0.296 3.59-0.598 3.04-0.34 3.04-0.34 5.04 0.66z" fill="#090D0F"/>
<path transform="translate(1590,189)" d="m0 0c1.81 0.188 1.81 0.188 4 1 2.99 3.76 3.54 7.29 4 12h-2c-0.182-0.626-0.364-1.25-0.551-1.9-0.377-1.23-0.377-1.23-0.762-2.48-0.365-1.22-0.365-1.22-0.738-2.46-0.863-2.5-0.863-2.5-3.95-4.16v-2z" fill="#040606"/>
<path transform="translate(1111,180)" d="m0 0c2.56-0.0271 5.12-0.0469 7.69-0.0625 0.721-0.00838 1.44-0.0168 2.19-0.0254 3.84-0.0175 7.39 0.153 11.1 1.09v2c-2 0.0425-4 0.0408-6 0-0.33-0.33-0.66-0.66-1-1-2.35-0.235-4.71-0.414-7.06-0.562-1.29-0.0838-2.58-0.168-3.91-0.254-1.5-0.0909-1.5-0.0909-3.03-0.184v-1z" fill="#090D0F"/>
<path transform="translate(218,292)" d="m0 0c4.38 0.165 6.36 0.325 9.44 3.56 0.516 0.804 1.03 1.61 1.56 2.44-1.44-0.453-2.88-0.912-4.31-1.38-0.801-0.255-1.6-0.51-2.43-0.773-2.26-0.852-2.26-0.852-5.26-2.85 0.33-0.33 0.66-0.66 1-1z" fill="#344459"/>
<path transform="translate(1222,271)" d="m0 0c0.33 0.99 0.66 1.98 1 3-0.99 0.66-1.98 1.32-3 2-1.19 2.05-1.19 2.05-2 4h-2v-2c-0.99-0.33-1.98-0.66-3-1 2.97-1.98 5.94-3.96 9-6z" fill="#040608"/>
<path transform="translate(1391,244)" d="m0 0c2 2 2 2 2 5 1.32 0.33 2.64 0.66 4 1-0.33 0.99-0.66 1.98-1 3-1.65-0.33-3.3-0.66-5-1-0.8-3.29-1.1-4.71 0-8z" fill="#010202"/>
<path transform="translate(1516,192)" d="m0 0c2.6 0.992 3.76 1.54 5.05 4.06 0.232 0.785 0.464 1.57 0.703 2.38 0.364 1.17 0.364 1.17 0.734 2.37 0.516 2.19 0.516 2.19 0.516 5.19h-2c-0.193-0.675-0.387-1.35-0.586-2.05-0.26-0.892-0.521-1.78-0.789-2.7-0.255-0.882-0.51-1.76-0.773-2.67-0.773-2.34-1.69-4.41-2.85-6.58z" fill="#06090A"/>
<path transform="translate(1309,181)" d="m0 0c0.33 0.66 0.66 1.32 1 2-0.959 0.155-0.959 0.155-1.94 0.312-0.681 0.227-1.36 0.454-2.06 0.688-0.33 0.99-0.66 1.98-1 3h-2c-0.33 0.99-0.66 1.98-1 3-0.99 0.33-1.98 0.66-3 1 0.671-2.93 1.5-4.62 3.91-6.45 2-1.24 4.02-2.43 6.09-3.55z" fill="#030506"/>
<path transform="translate(1378,160)" d="m0 0h13c-0.33 0.66-0.66 1.32-1 2-4.17 1.35-7.74 0.752-12 0v-2z"/>
<path transform="translate(161,311)" d="m0 0c1.86 0.0898 3.71 0.246 5.56 0.438 1.52 0.153 1.52 0.153 3.07 0.309 1.17 0.126 1.17 0.126 2.37 0.254-2.14 2.41-2.66 2.96-6 3.38-3-0.375-3-0.375-4.88-1.88-0.371-0.495-0.743-0.99-1.12-1.5 0.33-0.33 0.66-0.66 1-1z" fill="#344459"/>
<path transform="translate(1585,240)" d="m0 0c0.66 0.99 1.32 1.98 2 3-1 3-1 3-3 4-0.33 0.99-0.66 1.98-1 3h-2v-2c-0.66-0.33-1.32-0.66-2-1 0.804-0.598 1.61-1.2 2.44-1.81 2.79-2 2.79-2 3.56-5.19z" fill="#040607"/>
<path transform="translate(908,204)" d="m0 0h1v23h-1v-23z" fill="#344459"/>
<path transform="translate(1272,185)" d="m0 0h1v20h-1v-20z" fill="#344459"/>
<path transform="translate(763,209)" d="m0 0h1v5h-1v-5z" fill="#000002"/>
<path transform="translate(275)" d="m0 0 2 1z" fill="#FCFDFF"/>
</svg>
