<?xml version="1.0" encoding="UTF-8"?>
<svg version="1.1" viewBox="0 0 1584 1600" width="1280" height="1280" xmlns="http://www.w3.org/2000/svg">
<path transform="translate(0)" d="m0 0h1584v1600h-1584v-1600z" fill="#FAFCFE"/>
<path transform="translate(685 465)" d="m0 0c1.04-0.00199 2.08-0.00398 3.16-0.00603 1.73 0.00437 1.73 0.00437 3.5 0.00883 1.22-8.54e-4 2.44-0.00171 3.69-0.00259 3.39-0.00137 6.79 0.00178 10.2 0.00678 3.66 0.00431 7.31 0.00286 11 0.0021 6.34-5.25e-4 12.7 0.00262 19 0.00824 9.16 0.00812 18.3 0.0107 27.5 0.012 14.9 0.00219 29.7 0.00885 44.6 0.0183 14.4 0.00917 28.9 0.0163 43.3 0.0205 0.89 2.63e-4 1.78 5.25e-4 2.7 7.96e-4 4.46 0.00131 8.93 0.00257 13.4 0.00381 37 0.0104 74.1 0.028 111 0.0503 1.18 2.37 1.19 3.95 1.3 6.59 0.039 0.964 0.0781 1.93 0.118 2.92 0.0556 1.59 0.0556 1.59 0.112 3.2 0.0413 1.11 0.0827 2.21 0.125 3.35 0.489 13.8 0.697 27.7 0.91 41.5 0.144 9.05 0.289 18.1 0.438 27.4-37.6 0.495-37.6 0.495-76 1 0.33 9.9 0.66 19.8 1 30 0.0633 9.13 0.0973 18.2 0.0625 27.4-0.0206 7.8-0.0412 15.6-0.0625 23.6-24.8 0.33-49.5 0.66-75 1 0.33 20.1 0.66 40.3 1 61-5.4 0.0606-10.8 0.121-16.4 0.184-3.41 0.0405-6.83 0.0812-10.2 0.123-5.42 0.0664-10.8 0.132-16.3 0.191-4.37 0.0476-8.74 0.0999-13.1 0.156-1.67 0.0205-3.34 0.0392-5.01 0.0561-2.33 0.024-4.66 0.054-7 0.0856-1.05 0.00863-1.05 0.00863-2.11 0.0174-3.22-0.218-3.22-0.218-5.88 1.19-0.124 2.12-0.178 4.24-0.205 6.36-0.0099 0.663-0.0198 1.33-0.03 2.01-0.0317 2.2-0.0564 4.4-0.0811 6.61-0.0206 1.52-0.0416 3.05-0.063 4.57-0.0553 4.02-0.105 8.03-0.153 12-0.0502 4.1-0.106 8.19-0.161 12.3-0.108 8.04-0.209 16.1-0.307 24.1-10-0.107-20-0.22-30.1-0.339-4.65-0.0553-9.31-0.109-14-0.158-4.49-0.0476-8.97-0.0999-13.5-0.156-1.72-0.0205-3.43-0.0392-5.15-0.0561-2.39-0.024-4.79-0.054-7.18-0.0856-0.716-0.00576-1.43-0.0115-2.17-0.0174-4.9-0.0738-4.9-0.0738-6.01-1.19-0.0978-1.55-0.126-3.11-0.126-4.67-0.00261-1.02-0.00522-2.03-0.0079-3.08 0.00223-1.13 0.00446-2.26 0.00676-3.43-0.00156-1.19-0.00312-2.38-0.00473-3.61-0.00331-3.32-0.0021-6.64 9.86e-4 -9.96 0.00225-3.57-0.00122-7.15-0.00398-10.7-0.00446-7.01-0.00348-14-5.87e-4 -21 0.00225-5.7 0.00257-11.4 0.00148-17.1-1.53e-4 -0.809-3.06e-4 -1.62-4.64e-4 -2.45-3.2e-4 -1.64-6.44e-4 -3.29-9.73e-4 -4.93-0.00286-15.4 4.33e-4 -30.9 0.0058-46.3 0.00447-13.2 0.00369-26.5-9.19e-4 -39.7-0.00535-15.4-0.00746-30.7-0.00439-46.1 3.19e-4 -1.64 6.33e-4 -3.28 9.43e-4 -4.92 1.54e-4 -0.806 3.09e-4 -1.61 4.68e-4 -2.44 8.64e-4 -5.69-5.96e-4 -11.4-0.00295-17.1-0.0028-6.93-0.00205-13.9 0.00328-20.8 0.00263-3.54 0.00365-7.08 3.51e-4 -10.6-0.00352-3.83 6.78e-4 -7.66 0.00568-11.5-0.00335-1.69-0.00335-1.69-0.00676-3.41 0.00261-1.02 0.00522-2.05 0.0079-3.1 1.62e-4 -0.885 3.25e-4 -1.77 4.92e-4 -2.68 0.121-2.29 0.362-4.21 1.13-6.37 2.48-1.24 4.12-1.12 6.9-1.12z" fill="#133859"/>
<path transform="translate(0)" d="m0 0h1584v7c-38.7 1.23-77.4 1.12-116 1.08-9.87-0.0116-19.7-0.0169-29.6-0.0221-17.1-0.00897-34.2-0.0214-51.3-0.0364-27.1-0.0237-54.2-0.0379-81.3-0.0492-10.5-0.00437-20.9-9e-3 -31.4-0.0136-1.74-7.63e-4 -1.74-7.63e-4 -3.52-0.00154-27.5-0.0121-55.1-0.0265-82.6-0.042-1.2-6.75e-4 -2.41-0.00135-3.65-0.00205-28.1-0.0158-56.2-0.0338-84.4-0.0563-1.21-9.71e-4 -2.43-0.00194-3.68-0.00294-9.78-0.00785-19.6-0.0158-29.3-0.0237-40.3-0.0327-80.6-0.0553-121-0.0663-5.69-0.00156-11.4-0.00326-17.1-0.00504-1.68-5.23e-4 -1.68-5.23e-4 -3.39-0.00106-18-0.00594-36-0.0227-54-0.0438-18.1-0.0209-36.1-0.0312-54.2-0.0305-10.7 1.07e-4 -21.5-0.00825-32.2-0.0285-7.16-0.0127-14.3-0.0146-21.5-0.00764-4.08 0.00367-8.17 0.00253-12.3-0.0118-3.71-0.0129-7.43-0.0121-11.1-2.08e-4 -1.97 0.00273-3.94-0.00931-5.9-0.0219-9.47 0.0524-14.7 1.88-22.5 7.33-3.89 2.65-7.69 5.08-11.9 7.07-1.64 0.772-3.27 1.59-4.88 2.42-6.62 3.41-13.2 6.18-20.2 8.57l-3.71 1.37c-9.34 3.37-18.8 5.79-28.5 7.88-1.14 0.246-2.28 0.492-3.45 0.746-16.5 3.43-32.3 4.41-49.2 4.38-1.63-0.00131-1.63-0.00131-3.3-0.00266-16.3-0.0433-32-0.596-47.9-4.37-1.07-0.247-2.14-0.493-3.25-0.748-23.2-5.46-48-13.6-67.8-27.3-1.8-1.09-3.61-2.15-5.44-3.19l-2.68-1.54c-5.61-2.47-11.6-2.42-17.6-2.4-0.755-0.00145-1.51-0.00291-2.29-0.0044-2.53-0.00365-5.05-1.8e-4 -7.58 0.00326-1.83-0.00115-3.66-0.00274-5.49-0.00473-5.03-0.00418-10.1-0.00211-15.1 9.86e-4 -5.42 0.00226-10.8-0.00123-16.3-0.00398-10.6-0.00445-21.2-0.00348-31.9-5.87e-4 -8.63 0.00226-17.3 0.00257-25.9 0.00148-1.23-1.53e-4 -2.45-3.06e-4 -3.72-4.64e-4 -2.49-3.2e-4 -4.99-6.44e-4 -7.48-9.73e-4 -23.4-0.00285-46.8 4.28e-4 -70.2 0.0058-20.1 0.00452-40.2 0.00371-60.2-9.19e-4 -23.3-0.00535-46.6-0.00746-69.9-0.00439-2.48 3.19e-4 -4.97 6.33e-4 -7.45 9.43e-4 -1.22 1.54e-4 -2.44 3.09e-4 -3.7 4.68e-4 -8.62 8.65e-4 -17.2-5.96e-4 -25.9-0.00295-10.5-0.0028-21-0.00206-31.5 0.00328-5.36 0.00263-10.7 0.00365-16.1 3.51e-4 -4.9-0.00297-9.81-0.00136-14.7 0.00398-1.78 0.00112-3.56 5.38e-4 -5.34-0.00188-2.41-0.00302-4.82 5.68e-5 -7.22 0.00472-0.698-0.00234-1.4-0.00468-2.12-0.00709-3.24 0.0126-6.18 0.141-9.28 1.13l1 1c0.102 3.05 0.137 6.07 0.131 9.11 0.00197 0.975 0.00395 1.95 0.00598 2.95 0.00546 3.32 0.00371 6.63 0.00208 9.95 0.00244 2.39 0.00533 4.78 0.00861 7.18 0.00618 5.24 0.00921 10.5 0.00956 15.7 5.43e-4 7.85 0.00682 15.7 0.0143 23.5 0.0125 13.4 0.0203 26.7 0.0255 40.1 0.00531 13.6 0.0128 27.1 0.0229 40.7 6.39e-4 0.855 0.00128 1.71 0.00194 2.59 0.00327 4.36 0.00657 8.72 0.00988 13.1 0.0239 31.6 0.043 63.2 0.0596 94.8 0.0164 31.3 0.0349 62.6 0.0561 93.9 6.58e-4 0.971 0.00132 1.94 2e-3 2.94 0.00601 8.87 0.0121 17.7 0.0181 26.6 0.0151 22.1 0.0299 44.1 0.0444 66.2 9.95e-4 1.51 9.95e-4 1.51 0.00201 3.04 0.0322 48.9 0.0608 97.8 0.0891 147 0.00981 17 0.0196 33.9 0.0295 50.9 6.14e-4 1.05 0.00123 2.1 0.00186 3.19 0.0285 48.9 0.0597 97.8 0.0915 147 0.00207 3.17 0.00413 6.35 0.0062 9.52 0.0137 21 0.0274 42.1 0.0412 63.1 0.0274 41.9 0.0545 83.7 0.0814 126 0.00128 1.99 0.00257 3.99 0.00385 5.98 0.0578 89.8 0.112 180 0.166 269 5e-4 0.841 9.99e-4 1.68 0.00151 2.55 0.025 42 0.0498 84.1 0.0744 126l3.53 1.86c1.55 0.816 3.09 1.63 4.64 2.45 0.767 0.404 1.53 0.808 2.32 1.22 22 11.6 41.3 26.5 58.5 44.5l2.63 2.61c1.93 1.95 3.74 3.91 5.49 6.01 1.39 1.66 2.75 3.25 4.3 4.76 28.5 29.3 53.6 83.3 53.6 125h-140v-1600z" fill="#13385A"/>
<path transform="translate(488 800)" d="m0 0c0.85 0.00562 1.7 0.0112 2.58 0.017 0.895-0.0019 1.79-0.0038 2.71-0.00575 2.97-0.00372 5.95 0.00702 8.92 0.0182 2.07 0.00119 4.14 0.00164 6.21 0.00139 4.35 0.00157 8.71 0.00987 13.1 0.0233 5.55 0.0169 11.1 0.0208 16.6 0.0201 4.29 2.74e-4 8.57 0.00579 12.9 0.013 2.04 0.00316 4.09 0.00515 6.13 0.00589 10 0.00767 20 0.0736 30 0.96 2.8 0.204 5.53 0.213 8.33 0.144 15.4-0.0901 30.1 3.38 41.5 14.1 0.602 0.549 1.2 1.1 1.82 1.66 4.16 4.24 6.82 9.09 9.49 14.3 0.338 0.664 0.676 1.33 1.02 2.01 3.96 8.16 4.99 15.5 4.91 24.5 0.00773 0.898 0.0155 1.8 0.0234 2.72-0.0412 14.1-5.34 25.6-15 35.8-2.25 2-2.25 2-4.25 2-0.33 0.99-0.66 1.98-1 3-2.4 1.46-4.73 2.72-7.25 3.94-0.718 0.353-1.44 0.705-2.18 1.07-7.3 3.49-14.8 6.32-22.9 7.47-1.33 0.261-1.33 0.261-2.7 0.527-0.33 0.66-0.66 1.32-1 2 0.715 0.258 1.43 0.516 2.17 0.781 3 1.29 5.47 2.85 8.14 4.72 0.883 0.608 1.77 1.22 2.68 1.84 0.664 0.547 1.33 1.09 2.01 1.66v2c0.55 0.206 1.1 0.413 1.67 0.625 3.21 1.89 5.31 4.54 7.64 7.38 0.486 0.584 0.971 1.17 1.47 1.77 6.04 7.34 11.2 15.2 16.3 23.2 2.21 3.46 4.47 6.87 6.75 10.3 0.422 0.632 0.845 1.26 1.28 1.92 2.16 3.23 4.32 6.45 6.49 9.67 4.09 6.09 8.14 12.2 12 18.4 0.652 1.04 1.3 2.07 1.98 3.14 1.4 2.61 1.4 2.61 1.4 5.61-4.77 0.099-9.54 0.172-14.3 0.22-1.62 0.0201-3.24 0.0474-4.87 0.082-2.33 0.0486-4.67 0.0712-7 0.0889-0.723 0.0206-1.45 0.0413-2.19 0.0626-3.41 0.00151-5.26-0.162-7.99-2.28-2.15-2.84-4.08-5.77-5.96-8.79-2.68-4.26-5.4-8.46-8.31-12.6-2.93-4.13-5.64-8.37-8.33-12.7-3.04-4.7-6.26-9.28-9.49-13.8-3.56-5.09-3.56-5.09-3.56-7.31h-2c-1.35-1.85-2.63-3.76-3.88-5.69-8.69-12.9-18-23.3-33.1-28.3-16.6-1.19-33.3-1-50-1v92h-28c-1.77-1.77-1.13-4.15-1.14-6.51 0.00155-0.797 0.0031-1.59 0.00469-2.42-0.00227-0.841-0.00453-1.68-0.00687-2.55-0.00637-2.84-0.00551-5.68-0.00469-8.52-0.00299-2.03-0.00639-4.05-0.0102-6.08-0.00886-5.52-0.0112-11-0.0118-16.6-9.47e-4 -4.6-0.00462-9.2-0.00817-13.8-0.00815-10.8-0.0106-21.7-0.00987-32.5 6.01e-4 -11.2-0.00995-22.4-0.0257-33.6-0.0131-9.61-0.0184-19.2-0.0178-28.8 2.56e-4 -5.75-0.00263-11.5-0.0132-17.2-0.00964-5.4-0.00979-10.8-0.00248-16.2 0.00105-1.99-0.00135-3.97-0.00736-5.96-0.00765-2.7-0.00312-5.41 0.00463-8.11-0.00772-1.19-0.00772-1.19-0.0156-2.41 0.0443-6.95 1.46-7.87 8.32-7.91z" fill="#0A0F12"/>
<path transform="translate(285 800)" d="m0 0c1.19 0.00843 1.19 0.00843 2.4 0.017 0.833-0.0019 1.67-0.0038 2.52-0.00575 2.77-0.00372 5.55 0.00703 8.32 0.0182 1.94 0.00119 3.88 0.00164 5.82 0.00139 4.09 0.00157 8.17 0.00987 12.3 0.0233 5.17 0.0168 10.3 0.0208 15.5 0.0201 4.02 2.76e-4 8.04 0.00583 12.1 0.013 1.9 0.00313 3.8 0.00514 5.71 0.00589 10.2 0.00841 20.3 0.148 30.5 0.541 0.881 0.0286 1.76 0.0573 2.67 0.0868 15.3 0.674 33.6 5.26 44.6 16.5 13.2 15.9 17.3 33.7 16 54-1.58 14.9-8.21 27.5-19.1 37.7-11.4 9.21-26.5 14.3-41.1 14.9-0.78 0.0417-1.56 0.0833-2.36 0.126-2.56 0.132-5.12 0.25-7.68 0.366-0.88 0.0424-1.76 0.0847-2.67 0.128-21.4 1.01-42.7 0.884-64.1 0.747v84h-27c-2.54-2.54-2.24-4.15-2.27-7.61 0.00446-0.79 0.00892-1.58 0.0135-2.4-0.00312-0.837-0.00624-1.67-0.00945-2.54-0.00801-2.82-0.00164-5.64 0.00463-8.47-0.00271-2.02-0.00627-4.03-0.0106-6.05-0.00914-5.49-0.00557-11 7.58e-4 -16.5 0.00505-5.73 3.72e-4 -11.5-0.00277-17.2-0.00364-9.63 0.00117-19.3 0.0107-28.9 0.0109-11.1 0.00736-22.3-0.00365-33.4-0.00906-9.56-0.0104-19.1-0.00512-28.7 0.00312-5.71 0.00352-11.4-0.00307-17.1-0.00576-5.37-0.0018-10.7 0.00979-16.1 0.00265-1.98 0.00187-3.95-0.00253-5.93-0.00543-2.69 0.00135-5.38 0.0114-8.06-0.00446-0.79-0.00892-1.58-0.0135-2.4 0.0485-6.67 1.26-7.84 7.92-7.87z" fill="#0A0F12"/>
<path transform="translate(795 800)" d="m0 0c1.33 0.00212 1.33 0.00212 2.68 0.00429 2.83 0.00561 5.67 0.0182 8.5 0.0309 1.92 0.00501 3.84 0.00958 5.75 0.0137 4.71 0.011 9.41 0.0283 14.1 0.0488 2.37 4.56 4.5 9.01 6.08 13.9 0.352 1.08 0.704 2.16 1.07 3.27 0.365 1.14 0.73 2.27 1.11 3.44 2.79 8.53 5.64 17 8.75 25.4 6.67 18.1 12.9 36.4 18.9 54.8 1.88 5.69 3.89 11.3 6.15 16.8 1.5 3.74 2.81 7.54 4.13 11.3 0.6 1.73 1.2 3.47 1.8 5.2 0.319 0.924 0.638 1.85 0.967 2.8 1.14 3.27 2.3 6.53 3.46 9.79 0.819 2.32 1.64 4.64 2.46 6.95 0.393 1.09 0.787 2.19 1.19 3.32 2 5.7 3.48 10.9 3.93 16.9 1.96-0.195 1.96-0.195 4-1 1.1-1.73 1.1-1.73 1.72-3.97 0.286-0.864 0.572-1.73 0.866-2.62 0.302-0.962 0.604-1.92 0.915-2.91 0.699-2.11 1.4-4.23 2.11-6.34 0.381-1.15 0.762-2.3 1.15-3.49 2.24-6.62 4.65-13.2 7.05-19.7 0.515-1.41 1.03-2.82 1.54-4.23 1.04-2.84 2.07-5.67 3.11-8.51 1.25-3.42 2.5-6.84 3.75-10.3 4.25-11.7 8.52-23.3 13-34.9 3.09-8.03 5.95-16.1 8.74-24.3 2.8-8.12 5.79-16.2 8.85-24.2 1.74-4.59 3.44-9.17 4.99-13.8 0.398-1.19 0.398-1.19 0.804-2.4 0.482-1.46 0.952-2.92 1.41-4.38 1.54-4.65 1.54-4.65 3.64-6.17 3.3-1.14 6.47-1.11 9.92-1.09 1.08-0.00287 1.08-0.00287 2.19-0.0058 1.52-0.00136 3.04 0.00231 4.56 0.0107 2.33 0.0107 4.67 7.44e-5 7-0.0127 1.48 0.00132 2.96 0.00388 4.44 0.00781 0.699-0.00405 1.4-0.0081 2.12-0.0123 4.93 0.0479 4.93 0.0479 7.16 2.28 0.193 2.73 0.26 5.36 0.241 8.1 0.00171 0.847 0.00342 1.69 0.00518 2.57 0.00331 2.85-0.00773 5.71-0.0186 8.56-5.64e-4 2.04-2.48e-4 4.08 8.85e-4 6.12 5.76e-4 5.55-0.0112 11.1-0.0251 16.7-0.0125 5.8-0.0137 11.6-0.0161 17.4-0.00623 11-0.0227 22-0.0427 32.9-0.0223 12.5-0.0333 25-0.0434 37.5-0.0209 25.7-0.0561 51.4-0.101 77.2-4.29 0.0289-8.58 0.0468-12.9 0.0625-1.83 0.0126-1.83 0.0126-3.71 0.0254-1.17 0.00322-2.33 0.00645-3.54 0.00977-1.62 0.00786-1.62 0.00786-3.27 0.0159-2.61-0.114-2.61-0.114-4.61-1.11-0.33-54.5-0.66-109-1-165-3.24 6.32-3.24 6.32-5.68 12.7-0.271 0.84-0.543 1.68-0.822 2.55-0.269 0.853-0.538 1.71-0.814 2.59-2.1 6.65-4.45 13.2-7 19.7-3.34 8.5-6.46 17.1-9.51 25.7-4.75 13.4-9.59 26.7-14.6 40-3.44 9.09-6.8 18.2-9.97 27.4-2.56 7.4-5.26 14.8-7.97 22.1-0.442 1.2-0.883 2.4-1.34 3.64-0.412 1.11-0.823 2.22-1.25 3.37-0.554 1.5-0.554 1.5-1.12 3.03-0.92 2.27-0.92 2.27-1.92 3.27-1.93 0.0875-3.86 0.107-5.79 0.0977-1.17-0.00322-2.34-0.00645-3.54-0.00977-1.23-0.00838-2.46-0.0168-3.73-0.0254-1.85-0.00677-1.85-0.00677-3.74-0.0137-3.06-0.0118-6.13-0.0283-9.19-0.0488-3.13-5.93-5.5-11.9-7.64-18.2-0.333-0.967-0.666-1.93-1.01-2.93-1.06-3.08-2.11-6.15-3.16-9.23-4.09-12-8.21-23.9-12.9-35.7-2.13-5.38-4.06-10.8-5.83-16.3-0.586-1.79-1.17-3.57-1.76-5.36-0.289-0.88-0.578-1.76-0.876-2.67-4.4-13.3-9.26-26.4-14.2-39.5-3-8.08-5.82-16.2-8.46-24.4-1.17-3.61-2.38-7.13-3.94-10.6-1.31-3.11-1.31-3.11-1.31-6.11h-2v171h-26c-2.48-3.72-2.28-6.57-2.25-10.9-0.00241-0.811-0.00483-1.62-0.00732-2.46-0.00565-2.73 0.00304-5.45 0.0116-8.18-0.00107-1.95-0.00301-3.9-0.00575-5.85-0.00486-5.31 0.00282-10.6 0.013-15.9 0.00877-5.55 0.00702-11.1 0.00664-16.7 9.37e-4 -9.33 0.00963-18.7 0.0233-28 0.0157-10.8 0.021-21.6 0.0203-32.3-6.11e-4 -10.4 0.0045-20.7 0.0128-31.1 0.00353-4.41 0.00536-8.83 0.00589-13.2 0.00101-5.2 0.00712-10.4 0.0172-15.6 0.00292-1.91 0.00415-3.82 0.00357-5.73-4.91e-4 -2.61 0.00517-5.21 0.0124-7.82-0.00155-0.755-0.0031-1.51-0.00469-2.29 0.0187-4.08 0.175-7.99 1.14-12 3.38-1.69 7.22-1.12 10.9-1.1z" fill="#0A0F12"/>
<path transform="translate(834 465)" d="m0 0c1.26-0.00137 2.53-0.00275 3.83-0.00417 1.41 0.00354 2.82 0.00717 4.23 0.0109 1.48 2.82e-4 2.96 1.24e-4 4.43-4.43e-4 4.02-2.88e-4 8.04 0.0056 12.1 0.0126 4.2 0.00624 8.4 0.00684 12.6 0.00803 7.95 0.00311 15.9 0.0113 23.9 0.0213 9.05 0.0112 18.1 0.0167 27.2 0.0217 18.6 0.0105 37.3 0.0281 55.9 0.0503 1.18 2.37 1.19 3.95 1.3 6.59 0.039 0.964 0.0781 1.93 0.118 2.92 0.0371 1.06 0.0742 2.12 0.112 3.2 0.0413 1.11 0.0827 2.21 0.125 3.35 0.489 13.8 0.697 27.7 0.91 41.5 0.217 13.6 0.217 13.6 0.438 27.4-25.1 0.33-50.2 0.66-76 1 0.33 9.9 0.66 19.8 1 30 0.0633 9.13 0.0973 18.2 0.0625 27.4-0.0206 7.8-0.0412 15.6-0.0625 23.6-24.8 0.33-49.5 0.66-75 1-4.18-8.37-2.19-22-2.28-31.2-0.0179-1.47-0.0361-2.93-0.0547-4.4-0.0389-3.13-0.0753-6.25-0.11-9.38-0.0545-4.94-0.116-9.88-0.177-14.8-0.153-12.3-0.297-24.5-0.439-36.8-0.112-9.56-0.226-19.1-0.346-28.7-0.0617-4.92-0.119-9.83-0.172-14.7-0.0341-3.05-0.0723-6.09-0.112-9.14-0.0174-1.41-0.0332-2.83-0.0471-4.24-0.0192-1.93-0.0449-3.85-0.071-5.78-0.0125-1.08-0.0251-2.16-0.038-3.27 0.0155-2.53 0.0155-2.53-1.15-4.53 2.73-1.36 4.88-1.12 7.94-1.12z" fill="#13385A"/>
<path transform="translate(0)" d="m0 0h1584v7c-38.7 1.23-77.4 1.12-116 1.08-9.87-0.0116-19.7-0.0169-29.6-0.0221-17.1-0.00897-34.2-0.0214-51.3-0.0364-27.1-0.0237-54.2-0.0379-81.3-0.0492-10.5-0.00437-20.9-9e-3 -31.4-0.0136-1.74-7.63e-4 -1.74-7.63e-4 -3.52-0.00154-27.5-0.0121-55.1-0.0265-82.6-0.042-1.2-6.75e-4 -2.41-0.00135-3.65-0.00205-28.1-0.0158-56.2-0.0338-84.4-0.0563-1.21-9.71e-4 -2.43-0.00194-3.68-0.00294-9.78-0.00785-19.6-0.0158-29.3-0.0237-40.3-0.0327-80.6-0.0553-121-0.0663-5.69-0.00156-11.4-0.00326-17.1-0.00504-1.68-5.23e-4 -1.68-5.23e-4 -3.39-0.00106-18-0.00594-36-0.0227-54-0.0438-18.1-0.0209-36.1-0.0312-54.2-0.0305-10.7 1.07e-4 -21.5-0.00825-32.2-0.0285-7.16-0.0127-14.3-0.0146-21.5-0.00764-4.08 0.00367-8.17 0.00253-12.3-0.0118-3.71-0.0129-7.43-0.0121-11.1-2.08e-4 -1.97 0.00273-3.94-0.00931-5.9-0.0219-9.47 0.0524-14.7 1.88-22.5 7.33-3.89 2.65-7.69 5.08-11.9 7.07-1.64 0.772-3.27 1.59-4.88 2.42-6.62 3.41-13.2 6.18-20.2 8.57l-3.71 1.37c-9.34 3.37-18.8 5.79-28.5 7.88-1.14 0.246-2.28 0.492-3.45 0.746-16.5 3.43-32.3 4.41-49.2 4.38-1.63-0.00131-1.63-0.00131-3.3-0.00266-16.3-0.0433-32-0.596-47.9-4.37-1.07-0.247-2.14-0.493-3.25-0.748-23.2-5.46-48-13.6-67.8-27.3-1.8-1.09-3.61-2.15-5.44-3.19l-2.68-1.54c-5.61-2.47-11.6-2.42-17.6-2.4-0.754-0.00145-1.51-0.00291-2.28-0.0044-2.52-0.00365-5.05-1.8e-4 -7.57 0.00326-1.83-0.00115-3.66-0.00274-5.49-0.00473-5.02-0.00418-10-0.00211-15.1 9.86e-4 -5.42 0.00226-10.8-0.00123-16.2-0.00398-10.6-0.00445-21.2-0.00348-31.8-5.87e-4 -8.62 0.00226-17.2 0.00257-25.9 0.00148-1.84-2.3e-4 -1.84-2.3e-4 -3.72-4.64e-4 -2.49-3.2e-4 -4.98-6.44e-4 -7.47-9.73e-4 -23.4-0.00285-46.7 4.29e-4 -70.1 0.0058-20.1 0.00452-40.1 0.00369-60.2-9.19e-4 -23.3-0.00535-46.6-0.00746-69.9-0.00439-2.48 3.19e-4 -4.96 6.33e-4 -7.45 9.43e-4 -1.22 1.54e-4 -2.44 3.09e-4 -3.7 4.68e-4 -8.61 8.64e-4 -17.2-5.95e-4 -25.8-0.00295-10.5-0.0028-21-0.00205-31.5 0.00328-5.36 0.00263-10.7 0.00365-16.1 3.51e-4 -4.9-0.00298-9.8-0.00135-14.7 0.00398-1.77 0.00112-3.55 5.46e-4 -5.32-0.00188-2.41-0.00304-4.82 7.46e-5 -7.23 0.00472-1.04-0.00351-1.04-0.00351-2.09-0.00709-4.33 0.0167-8.41 0.438-12.7 1.13v-9z" fill="#11151B"/>
<path transform="translate(762 465)" d="m0 0c0.69-0.00496 1.38-0.00993 2.09-0.015 2.28-0.0146 4.57-0.0214 6.85-0.0269 1.58-0.00575 3.17-0.0115 4.75-0.0173 3.32-0.0105 6.64-0.0164 9.97-0.0198 4.26-0.00549 8.53-0.0295 12.8-0.058 3.27-0.0186 6.54-0.0238 9.82-0.0254 1.57-0.00303 3.15-0.0111 4.72-0.0242 2.2-0.017 4.39-0.0152 6.59-0.00869 1.25-0.00365 2.5-0.00729 3.79-0.011 0.964 0.121 1.93 0.243 2.92 0.367 2.31 3.47 2.27 4.83 2.31 8.92 0.0181 1.24 0.0363 2.48 0.0549 3.75 0.0102 1.37 0.0202 2.75 0.0301 4.12 0.0175 1.45 0.0359 2.89 0.0551 4.34 0.0395 3.12 0.0728 6.23 0.101 9.35 0.0453 4.94 0.104 9.88 0.165 14.8 0.0948 7.83 0.18 15.7 0.262 23.5 0.146 14 0.305 28 0.471 41.9 0.0578 4.9 0.111 9.8 0.16 14.7 0.0314 3.07 0.0662 6.14 0.102 9.21 0.0156 1.41 0.0298 2.82 0.0423 4.23 0.0725 8.07 0.395 16.1 1.02 24.1 0.259 3.48 0.382 6.93 0.432 10.4 0.0299 1.89 0.0299 1.89 0.0604 3.82 0.0167 1.31 0.0334 2.61 0.0506 3.96 0.0206 1.39 0.0416 2.78 0.063 4.18 0.0544 3.61 0.104 7.23 0.153 10.8 0.0508 3.71 0.106 7.42 0.161 11.1 0.107 7.24 0.208 14.5 0.307 21.7-10 0.154-20 0.302-30.1 0.443-4.65 0.0657-9.31 0.133-14 0.205-4.49 0.0692-8.97 0.134-13.5 0.195-1.72 0.0242-3.43 0.0501-5.15 0.0778-2.39 0.0384-4.79 0.0706-7.18 0.101-0.716 0.0129-1.43 0.0259-2.17 0.0392-1.67 0.0181-3.34-0.0158-5.01-0.061-1.62-1.62-1.17-3.43-1.21-5.68-0.0199-1.04-0.0399-2.07-0.0604-3.14-0.0251-1.76-0.0251-1.76-0.0507-3.56-0.0312-1.91-0.0312-1.91-0.0631-3.86-0.0577-3.66-0.107-7.31-0.153-11-0.0301-2.35-0.062-4.7-0.0942-7.06-0.867-64.9-0.457-130-0.373-195 2.91-1.45 5.46-1.14 8.71-1.16z" fill="#504D55"/>
<path transform="translate(1109 800)" d="m0 0c2.69-0.0989 5.38-0.163 8.07-0.218 0.885-0.03 1.77-0.0599 2.68-0.0908 0.837-0.00741 1.67-0.0148 2.54-0.0225 0.752-0.0146 1.5-0.0292 2.28-0.0442 2 0.47 2 0.47 3.61 2.13 1.6 2.69 2.81 5.39 4 8.29 0.5 1.21 0.999 2.41 1.51 3.65 0.264 0.645 0.528 1.29 0.801 1.95 1.44 3.5 2.89 6.99 4.34 10.5 0.304 0.733 0.608 1.47 0.921 2.22 3.06 7.38 6.21 14.7 9.37 22.1 7.7 17.9 15.3 35.8 22.7 53.8 2.99 7.23 6.14 14.4 9.35 21.5 5.46 12.2 10.7 24.5 15.9 36.8 1.33 3.18 2.67 6.35 4.01 9.52 1.17 2.76 2.33 5.53 3.49 8.29 0.558 1.32 1.12 2.65 1.67 3.97 3.6 8.52 7.04 17.1 10.3 25.7-4.65-0.0194-9.29-0.071-13.9-0.153-1.58-0.0232-3.16-0.0376-4.74-0.043-2.27-0.00928-4.54-0.0502-6.81-0.0974-0.706 0.00393-1.41 0.00787-2.14 0.0119-2-0.0595-2-0.0595-5.37-0.719-1.87-2.31-1.87-2.31-3-5-0.287-0.631-0.573-1.26-0.869-1.91-0.237-0.614-0.473-1.23-0.717-1.86-0.427-1.09-0.427-1.09-0.863-2.2-0.306-0.791-0.611-1.58-0.926-2.4-4.23-10.8-8.72-21.4-13.2-32.1-0.545-1.29-1.09-2.58-1.64-3.87-0.483-1.14-0.966-2.28-1.46-3.45-1.22-3.04-2.29-6.09-3.29-9.21-4.43-1.1-8.75-1.13-13.3-1.11-0.82-1.46e-4 -1.64-2.92e-4 -2.48-4.43e-4 -2.7 6.94e-4 -5.4 0.00847-8.1 0.0163-1.88 0.00187-3.75 0.00329-5.63 0.00429-4.93 0.00381-9.86 0.0136-14.8 0.0247-5.03 0.0102-10.1 0.0148-15.1 0.0198-9.87 0.0107-19.7 0.0278-29.6 0.0488-0.802 1.74-1.6 3.48-2.4 5.23-0.446 0.97-0.891 1.94-1.35 2.94-1.68 3.81-3.01 7.69-4.31 11.6-3.13 9.23-6.68 18.3-10.3 27.3-0.271 0.675-0.542 1.35-0.821 2.04-4.55 11.3-4.55 11.3-5.8 13.8h-28c-1.06-5.29-0.361-7.67 1.58-12.4 0.286-0.728 0.572-1.46 0.867-2.21 0.923-2.34 1.86-4.67 2.8-7.01 0.587-1.48 1.17-2.97 1.76-4.45 3.23-8.15 6.54-16.3 9.85-24.4 6.19-15.2 12.3-30.4 18.3-45.6 2.46-6.21 4.92-12.4 7.38-18.6 0.273-0.689 0.546-1.38 0.828-2.09 6.3-15.9 12.6-31.8 19-47.6 0.753-1.88 1.51-3.75 2.26-5.63 0.359-0.895 0.718-1.79 1.09-2.71 3.17-7.94 6.29-15.9 9.37-23.9 0.353-0.908 0.706-1.82 1.07-2.75 0.309-0.799 0.619-1.6 0.937-2.42 0.883-2.14 1.76-4.2 2.91-6.21 4.23-1.36 9.02-0.923 13.4-1.09z" fill="#0A0F12"/>
<path transform="translate(1584,1028)" d="m0 0v246c-5.09-2.91-8.84-5.38-12.9-9.31-1.05-0.984-2.1-1.97-3.15-2.95-1.44-1.36-1.44-1.36-2.91-2.74-5.44-4.92-11.1-9.56-16.8-14.2-3.2-2.62-3.2-2.62-3.53-5.35-0.695-9.78-0.83-19.5-0.818-29.3-0.00136-1.75-0.00314-3.5-0.00531-5.24-0.00452-4.71-0.00281-9.41 3.79e-4 -14.1 0.00255-4.95 1.78e-4 -9.91-0.00139-14.9-0.00181-8.32 5.64e-4 -16.6 0.00534-25 0.00544-9.58 0.00368-19.2-0.00183-28.7-0.00456-8.26-0.00517-16.5-0.00256-24.8 0.00155-4.92 0.0018-9.83-0.00154-14.8-0.00292-4.63-8.29e-4 -9.26 0.00489-13.9 0.00131-1.68 9.71e-4 -3.37-0.00126-5.05-0.0101-8.44 0.0979-16.9 0.516-25.3 0.0304-0.724 0.0607-1.45 0.092-2.19 0.289-5.06 0.289-5.06 2.52-7.29 2.71-0.246 5.32-0.374 8.04-0.414 0.794-0.0194 1.59-0.0387 2.41-0.0587 2.54-0.0599 5.08-0.106 7.62-0.152 1.72-0.0382 3.43-0.0772 5.15-0.117 11.3-0.258 11.3-0.258 13.8-0.258z" fill="#F9A618"/>
<path transform="translate(1246 800)" d="m0 0c1.11-0.00258 2.22-0.00516 3.37-0.00781 1.17 0.00773 2.33 0.0155 3.54 0.0234 1.17-0.00773 2.33-0.0155 3.54-0.0234 1.11 0.00258 2.22 0.00516 3.37 0.00781 1.02 0.00226 2.05 0.00451 3.1 0.00684 2.49 0.259 2.49 0.259 4.49 2.26 0.243 1.99 0.243 1.99 0.234 4.48 0.00196 1.42 0.00196 1.42 0.00395 2.86-0.00876 1.04-0.0175 2.08-0.0266 3.15-0.00131 1.1-0.00263 2.19-0.00398 3.32-0.00655 3.67-0.0271 7.33-0.047 11-0.00629 2.59-0.0115 5.18-0.0158 7.77-0.0127 6.89-0.0377 13.8-0.0654 20.7-0.0459 11.5-0.0793 22.9-0.102 34.4-0.00273 1.34-0.00563 2.68-0.00869 4.02-0.0674 29.8 0.399 59.6 1.03 89.4 2.29 1.15 3.55 1.12 6.1 1.11 0.858-0.00152 1.72-0.00303 2.6-0.00459 0.943-0.00674 1.89-0.0135 2.86-0.0204 0.992-0.00307 1.98-0.00613 3.01-0.00929 2.16-0.00717 4.32-0.0166 6.48-0.0279 3.41-0.0173 6.82-0.0277 10.2-0.0359 9.7-0.0245 19.4-0.0601 29.1-0.105 5.93-0.0267 11.9-0.0438 17.8-0.0549 2.26-0.00623 4.53-0.0163 6.79-0.0301 3.16-0.0191 6.32-0.0261 9.48-0.0303 0.943-0.00876 1.89-0.0175 2.86-0.0266 0.858 0.0013 1.72 0.00261 2.6 0.00395 1.12-0.00471 1.12-0.00471 2.27-0.00952 1.83 0.243 1.83 0.243 3.83 2.24 0.227 2.34 0.227 2.34 0.195 5.23-0.00967 1.55-0.00967 1.55-0.0195 3.12l-0.0508 3.27c-0.00902 1.09-0.018 2.18-0.0273 3.3-0.0236 2.69-0.0566 5.39-0.0977 8.08-17.6 0.0233-35.2 0.041-52.8 0.0518-8.16 0.00516-16.3 0.0122-24.5 0.0236-7.11 0.00995-14.2 0.0164-21.3 0.0186-3.77 0.00131-7.54 0.00439-11.3 0.0116-4.2 0.00801-8.4 0.00826-12.6 0.0078-1.26 0.0036-2.52 0.00719-3.81 0.0109-1.71-0.00206-1.71-0.00206-3.45-0.00417-0.995 9.22e-4 -1.99 0.00184-3.01 0.00279-2.23-0.123-2.23-0.123-3.23-1.12-0.102-2.65-0.139-5.28-0.134-7.93-0.00227-0.841-0.00453-1.68-0.00687-2.55-0.00637-2.84-0.00551-5.68-0.00469-8.52-0.00299-2.03-0.00639-4.05-0.0102-6.08-0.00886-5.52-0.0112-11-0.0118-16.6-9.47e-4 -4.6-0.00462-9.2-0.00817-13.8-0.00815-10.8-0.0106-21.7-0.00987-32.5 6.01e-4 -11.2-0.00995-22.4-0.0257-33.6-0.0131-9.61-0.0184-19.2-0.0178-28.8 2.56e-4 -5.75-0.00263-11.5-0.0132-17.2-0.00964-5.4-0.00979-10.8-0.00248-16.2 0.00105-1.99-0.00135-3.97-0.00736-5.96-0.00765-2.7-0.00312-5.41 0.00463-8.11-0.00772-1.19-0.00772-1.19-0.0156-2.41 0.0426-6.67 1.3-7.9 7.86-7.91z" fill="#0A0F12"/>
<path transform="translate(1584,7)" d="m0 0v196c-0.99-0.33-1.98-0.66-3-1-7.93-0.949-15.8-1.09-23.8-0.938-4.56-0.0893-8.79-0.94-13.2-2.06-0.0235-21.4-0.041-42.8-0.0518-64.1-0.00513-9.93-0.0121-19.9-0.0236-29.8-0.01-8.66-0.0164-17.3-0.0186-26-0.00129-4.58-0.00428-9.16-0.0116-13.7-0.0291-18.8 0.00284-37.6 1.11-56.4-0.66-0.33-1.32-0.66-2-1 13-4.32 27.3-1 41-1z" fill="#F9A618"/>
<path transform="translate(517 823)" d="m0 0c0.648-0.0035 1.3-0.00701 1.96-0.0106 2.15-0.00884 4.3-0.00295 6.46 0.00378 1.51-0.00135 3.01-0.00329 4.52-0.0058 3.17-0.00296 6.34 0.00135 9.51 0.0107 4.02 0.0113 8.03 0.00493 12-0.00714 3.12-0.00732 6.24-0.00488 9.36 2.56e-4 1.48 0.00131 2.95-2.32e-4 4.43-0.00496 36.9-0.092 36.9-0.092 48.2 11 7.79 8.42 10.7 16.3 10.6 27.7-0.774 8.29-3.94 14.7-9.89 20.5-7.56 6.18-15.7 9.48-25.5 9.92-2.43 0.115-4.77 0.355-7.18 0.643-7.05 0.712-14.1 0.622-21.2 0.595-1.47-0.00187-2.93-0.00329-4.4-0.00429-3.82-0.00379-7.65-0.0136-11.5-0.0247-3.92-0.0103-7.83-0.0148-11.7-0.0198-7.66-0.0107-15.3-0.0277-23-0.0488-1.4-2.8-1.13-5.12-1.15-8.25-0.00638-1.31-0.0128-2.63-0.0193-3.98-0.00153-1.44-0.00264-2.88-0.00337-4.32-0.00321-1.47-0.00658-2.94-0.0101-4.42-0.00599-3.09-0.00784-6.17-0.00725-9.26 1.02e-4 -3.96-0.0136-7.92-0.0308-11.9-0.0111-3.04-0.0131-6.08-0.0126-9.12-0.00118-1.46-0.00562-2.92-0.0133-4.38-0.00976-2.04-0.00567-4.08-8.95e-4 -6.12-0.00143-1.16-0.00285-2.32-0.00432-3.52 0.503-5.56 3.81-4.99 8.55-4.99z" fill="#FAFCFE"/>
<path transform="translate(472 6.75)" d="m0 0c0.86-0.00522 1.72-0.0104 2.61-0.0158 0.946 0.00446 1.89 0.00892 2.87 0.0135 1-0.00312 2.01-0.00624 3.04-0.00945 3.38-0.00801 6.76-0.00165 10.1 0.00463 2.42-0.00271 4.84-0.00627 7.25-0.0106 5.89-0.00819 11.8-0.00697 17.7-0.00117 4.79 0.00451 9.58 0.00513 14.4 0.00295 1.02-4.6e-4 1.02-4.6e-4 2.06-9.29e-4 1.38-6.39e-4 2.77-0.00129 4.15-0.00195 13-0.00571 26 8.6e-4 38.9 0.0116 11.1 0.00893 22.3 0.00739 33.4-0.00184 12.9-0.0107 25.9-0.0149 38.8-0.00878 1.38 6.37e-4 2.76 0.00127 4.14 0.00189 0.679 3.09e-4 1.36 6.17e-4 2.06 9.35e-4 4.78 0.00173 9.57-0.00119 14.4-0.00589 6.44-0.00619 12.9-0.00179 19.3 0.00979 2.37 0.00265 4.73 0.00187 7.1-0.00253 3.22-0.00544 6.45 0.00136 9.67 0.0114 0.943-0.00446 1.89-0.00892 2.86-0.0135 1.29 0.00782 1.29 0.00782 2.62 0.0158 1.12 4.87e-4 1.12 4.87e-4 2.25 9.84e-4 2.37 0.287 4.01 1.08 6.07 2.25v2c-5.54 4.27-11.5 8.04-17.9 11-1.64 0.772-3.27 1.59-4.88 2.42-6.62 3.41-13.2 6.18-20.2 8.57-1.22 0.451-2.45 0.902-3.71 1.37-9.34 3.37-18.8 5.79-28.5 7.88-1.14 0.246-2.28 0.492-3.45 0.746-16.5 3.43-32.3 4.41-49.2 4.38-1.63-0.00131-1.63-0.00131-3.3-0.00266-16.3-0.0433-32-0.596-47.9-4.37-1.07-0.247-2.14-0.493-3.25-0.748-23.1-5.45-48-13.6-67.8-27.3-1.28-0.766-2.57-1.52-3.88-2.25-1.03-0.578-2.06-1.16-3.12-1.75 0.897-0.433 0.897-0.433 1.81-0.875 6.56-3.38 6.56-3.38 9.39-3.38z" fill="#4F4C55"/>
<path transform="translate(315 825)" d="m0 0c1.04-0.00745 1.04-0.00745 2.1-0.015 2.3-0.0146 4.6-0.0214 6.9-0.0269 1.61-0.00575 3.21-0.0115 4.82-0.0173 3.37-0.0105 6.75-0.0164 10.1-0.0198 4.29-0.00545 8.59-0.0294 12.9-0.058 3.32-0.0188 6.64-0.0238 9.97-0.0254 1.58-3e-3 3.16-0.0109 4.74-0.0242 12.9-0.101 25.5 0.39 35.7 9.35 8.65 9.17 11.5 19.7 11.3 32-0.791 11.6-5.53 18.9-14 26.5-11.7 8.72-30.9 6.99-44.7 7.15-3.43 0.0413-6.85 0.104-10.3 0.17-9.96 0.17-19.9 0.234-29.9-0.301-0.75-0.0401-1.5-0.0803-2.27-0.122-5.02-0.323-5.02-0.323-6.16-1.46-0.0944-2.24-0.117-4.48-0.114-6.72-1.46e-4 -0.702-2.92e-4 -1.4-4.43e-4 -2.13 6.99e-4 -2.33 0.00849-4.66 0.0163-7 0.00186-1.61 0.00329-3.23 0.00429-4.84 0.00383-4.25 0.0137-8.51 0.0247-12.8 0.0102-4.34 0.0148-8.67 0.0198-13 0.0107-8.51 0.0278-17 0.0488-25.5 2.91-1.46 5.48-1.14 8.74-1.16z" fill="#FAFCFE"/>
<path transform="translate(1531 1503)" d="m0 0c0.667 0.165 1.33 0.33 2.02 0.501 3.7 1.01 6.25 2.33 9.23 4.69 0.99 0.0412 1.98 0.0825 3 0.125 3 0.875 3 0.875 4.1 2.58 0.673 1.56 1.3 3.13 1.89 4.72 1.01 2.58 2.29 4.76 3.7 7.13 3.84 7.61 4.69 18.1 2.25 26.3-2.72 6.54-6.68 12.5-10.9 18.1 5.09-0.118 10.2-0.242 15.3-0.372 1.73-0.0434 3.46-0.085 5.2-0.125 2.49-0.0577 4.97-0.121 7.46-0.186 0.777-0.0167 1.55-0.0334 2.35-0.0506 3.99-0.0305 3.99-0.0305 7.72-1.27v35h-39v-32c-4.62 1.92-4.62 1.92-9.24 3.86-13.3 5.44-31.3 4.67-44.8 0.141-3.57-1.71-6.8-3.66-10-6-0.839-0.578-1.68-1.15-2.54-1.75-2.98-2.73-4.54-5.71-6.21-9.31-0.454-0.937-0.454-0.937-0.918-1.89-4.25-8.86-4.58-17.2-1.35-26.6 4.36-10.6 11.1-18 21.8-22.7 12.6-3.97 26.3-4.17 39-0.996z" fill="#514E56"/>
<path transform="translate(911 465)" d="m0 0c1.08-2.19e-4 1.08-2.19e-4 2.19-4.43e-4 2.39 6.98e-4 4.78 0.00848 7.17 0.0163 1.66 0.00186 3.31 0.00329 4.97 0.00429 4.36 0.00382 8.73 0.0136 13.1 0.0247 4.45 0.0102 8.9 0.0148 13.4 0.0198 8.74 0.0107 17.5 0.0278 26.2 0.0488 1.18 2.37 1.19 3.95 1.3 6.59 0.039 0.964 0.0781 1.93 0.118 2.92 0.0371 1.06 0.0742 2.12 0.112 3.2 0.0413 1.11 0.0827 2.21 0.125 3.35 0.489 13.8 0.697 27.7 0.91 41.5 0.217 13.6 0.217 13.6 0.438 27.4-37.6 0.495-37.6 0.495-76 1v-2h-2c-0.993-27.7-1.12-55.3-1-83 2.99-1.49 5.69-1.12 9.02-1.11z" fill="#10141A"/>
<path transform="translate(712 800)" d="m0 0c1.11-0.00258 2.22-0.00516 3.37-0.00781 1.17 0.00773 2.33 0.0155 3.54 0.0234 1.17-0.00773 2.33-0.0155 3.54-0.0234 1.11 0.00258 2.22 0.00516 3.37 0.00781 1.02 0.00226 2.05 0.00451 3.1 0.00684 2.49 0.259 2.49 0.259 4.49 2.26 0.193 2.73 0.26 5.36 0.241 8.1 0.00171 0.847 0.00342 1.69 0.00518 2.57 0.00331 2.85-0.00773 5.71-0.0186 8.56-5.64e-4 2.04-2.48e-4 4.08 8.85e-4 6.12 5.76e-4 5.55-0.0112 11.1-0.0251 16.7-0.0125 5.8-0.0137 11.6-0.0161 17.4-0.00623 11-0.0227 22-0.0427 32.9-0.0223 12.5-0.0333 25-0.0434 37.5-0.0209 25.7-0.0561 51.4-0.101 77.2-3.97 0.0247-7.94 0.0428-11.9 0.0549-1.35 0.00504-2.7 0.0119-4.05 0.0205-1.94 0.0121-3.88 0.0173-5.82 0.0222-1.17 0.00524-2.34 0.0105-3.54 0.0159-2.68-0.114-2.68-0.114-3.68-1.11-0.102-2.65-0.139-5.28-0.134-7.93-0.00227-0.841-0.00453-1.68-0.00687-2.55-0.00637-2.84-0.00551-5.68-0.00469-8.52-0.00299-2.03-0.00639-4.05-0.0102-6.08-0.00886-5.52-0.0112-11-0.0118-16.6-9.47e-4 -4.6-0.00462-9.2-0.00817-13.8-0.00815-10.8-0.0106-21.7-0.00987-32.5 6.01e-4 -11.2-0.00995-22.4-0.0257-33.6-0.0131-9.61-0.0184-19.2-0.0178-28.8 2.56e-4 -5.75-0.00263-11.5-0.0132-17.2-0.00964-5.4-0.00979-10.8-0.00248-16.2 0.00105-1.99-0.00135-3.97-0.00736-5.96-0.00765-2.7-0.00312-5.41 0.00463-8.11-0.00772-1.19-0.00772-1.19-0.0156-2.41 0.0426-6.67 1.3-7.9 7.86-7.91z" fill="#0A0F12"/>
<path transform="translate(0,9)" d="m0 0c1.32 0.33 2.64 0.66 4 1 0.0165 42.5 0.0323 85.1 0.0476 128 2.99e-4 0.832 5.99e-4 1.66 9.07e-4 2.52 0.0321 89.2 0.0597 178 0.0785 268 4.18e-4 1.98 8.37e-4 3.96 0.00126 5.94 0.00877 41.6 0.0169 83.2 0.0244 125 0.00374 20.9 0.00759 41.8 0.0116 62.7 5.98e-4 3.15 0.00119 6.3 0.00179 9.45 0.00918 48.5 0.0209 97 0.04 146 4.11e-4 1.04 8.21e-4 2.09 0.00124 3.16 0.00664 16.8 0.0135 33.6 0.0204 50.5 0.0198 48.4 0.038 96.9 0.0458 145 1.61e-4 0.996 3.21e-4 1.99 4.87e-4 3.02 0.0035 21.9 0.00618 43.7 0.0081 65.6 7.85e-4 8.8 0.00169 17.6 0.00263 26.4 1e-4 0.963 2.01e-4 1.93 3.04e-4 2.92 0.00329 31 0.0161 62.1 0.0339 93.1 0.0179 31.3 0.0265 62.5 0.022 93.8-6.09e-4 4.32-0.00111 8.63-0.00155 13-8.96e-5 0.846-1.79e-4 1.69-2.72e-4 2.56-0.00114 13.4 0.00782 26.8 0.021 40.2 0.0127 13.2 0.0148 26.4 0.00547 39.5-0.00515 7.73-0.00205 15.5 0.0132 23.2 0.0104 5.73 0.00515 11.5-0.00623 17.2-0.00215 2.31 7.73e-4 4.62 0.00929 6.93 0.0108 3.13 0.00315 6.26-0.00911 9.39 0.00753 0.893 0.0151 1.79 0.0228 2.7-0.0522 6.24-1.33 11.6-3.4 17.5h-1v-1403z" fill="#504D55"/>
<path transform="translate(1111,827)" d="m0 0c2.79 2.4 3.8 4.61 4.98 8.06 0.355 1.02 0.711 2.03 1.08 3.08 0.559 1.63 0.559 1.63 1.13 3.3 2.84 8.11 5.76 16.2 9 24.1 2.51 6.18 4.93 12.4 7.23 18.6 1.8 4.83 3.7 9.62 5.62 14.4 0.272 0.677 0.544 1.35 0.824 2.05 1.39 3.44 2.78 6.89 4.17 10.3 0.516 1.28 1.03 2.56 1.55 3.83 0.465 1.14 0.929 2.29 1.41 3.47 1.01 2.73 1.01 2.73 1.01 4.73h-72c-0.33-0.66-0.66-1.32-1-2 0.913-1.83 1.83-3.65 2.78-5.46 1.33-2.78 2.34-5.57 3.34-8.48 2.34-6.73 4.95-13.3 7.62-19.9 11.8-29 11.8-29 20.2-59.1 0.33-0.33 0.66-0.66 1-1z" fill="#FAFCFE"/>
<path transform="translate(1582,202)" d="m0 0c0.66 0.33 1.32 0.66 2 1v825h-1v-6c-0.928 0.227-1.86 0.454-2.81 0.688-3.19 0.312-3.19 0.312-5.06-1.12-0.557-0.773-0.557-0.773-1.12-1.56 0.33-0.99 0.66-1.98 1-3 2.31 0.33 4.62 0.66 7 1v-8c-2.31-0.33-4.62-0.66-7-1-0.33-1.65-0.66-3.3-1-5 3.29-0.8 4.71-1.1 8 0v-10h-4v-5h4v-10h-4v-4h4v-11c-1.98 0.33-3.96 0.66-6 1-0.33-1.32-0.66-2.64-1-4 3.01-0.934 3.87-1.04 7 0v-11h-4v-4h4v-11h-4v-3h4v-12h-7c0.33-0.99 0.66-1.98 1-3h5c0.33-3.96 0.66-7.92 1-12-1.98 0.33-3.96 0.66-6 1v-3c1.98 0.33 3.96 0.66 6 1v-13h-7v-2h7v-12h-7v-3h7v-11h-4v-3h4v-11h-7c0.33-1.32 0.66-2.64 1-4h5c0.33-3.63 0.66-7.26 1-11h-7v-3c3-1 3-1 7 0-0.33-3.63-0.66-7.26-1-11-2.31-0.33-4.62-0.66-7-1 0.33-0.99 0.66-1.98 1-3h7c0.33-3.3 0.66-6.6 1-10h-8c0.495-2.47 0.495-2.47 1-5h6c0.33-3.3 0.66-6.6 1-10h-8v-4h6c0.33-3.3 0.66-6.6 1-10h-7c-0.33-1.32-0.66-2.64-1-4 2.31-0.33 4.62-0.66 7-1v-9h-5c-0.625-1.88-0.625-1.88-1-4 0.66-0.66 1.32-1.32 2-2 2.62 0.375 2.62 0.375 5 1v-9h-7v-5c4.75-1.12 4.75-1.12 7 0v-10h-7v-5h6v-9h-5c-0.66-1.65-1.32-3.3-2-5h7c0.33-3.3 0.66-6.6 1-10-1.42 0.0309-1.42 0.0309-2.88 0.0625-3.12-0.0625-3.12-0.0625-5.12-1.06v-3c2.89-0.826 4.89-1 8-1v-9h-6c-0.33-1.65-0.66-3.3-1-5 3-1 3-1 6-1v-8c-1.21 0.0309-1.21 0.0309-2.44 0.0625-2.56-0.0625-2.56-0.0625-3.56-1.06-0.0406-1.67-0.0427-3.33 0-5h7v-9h-6c-0.33-1.65-0.66-3.3-1-5 4.75-1.12 4.75-1.12 7 0v-10h-7c0.33-1.65 0.66-3.3 1-5h5c0.33-2.97 0.66-5.94 1-9h-7v-5h7v-10h-7c0.33-1.65 0.66-3.3 1-5h5c0.33-3.3 0.66-6.6 1-10h-4v-4h4v-10h-6c-0.33-1.32-0.66-2.64-1-4h7v-10h-4v-4h4v-12h-7c0.33-0.99 0.66-1.98 1-3h6v-11h-6v-3h6v-12h-7v-2c3-1 3-1 7 0-0.33-3.96-0.66-7.92-1-12h-5c-0.495-1.48-0.495-1.48-1-3h6c0.33-3.63 0.66-7.26 1-11h-4c0.495-1.98 0.495-1.98 1-4 0.99 0.33 1.98 0.66 3 1v-12h-4v-3h4v-11h-7c0.99-1.98 0.99-1.98 2-4h4c0.33-3.63 0.66-7.26 1-11h-7c0.33-0.99 0.66-1.98 1-3 1.98 0.33 3.96 0.66 6 1v-12h-4v-3h4v-11h-4v-4h3c0.33-3.63 0.66-7.26 1-11-1.32 0.33-2.64 0.66-4 1v-5h3c0.33-3.3 0.66-6.6 1-10h-4v-4h4v-11c-1.32 0.33-2.64 0.66-4 1v-5c1.32 0.33 2.64 0.66 4 1v-11h-4v-4h3c0.33-3.3 0.66-6.6 1-10h-6v-4h5c0.165-1.26 0.33-2.52 0.5-3.81 0.139-1.06 0.139-1.06 0.281-2.14 0.272-2.2 0.272-2.2 0.219-5.04h-7c0.495-1.98 0.495-1.98 1-4h5c0.33-3.3 0.66-6.6 1-10-2.97 0.495-2.97 0.495-6 1-0.495-2.48-0.495-2.48-1-5 4.75-1.12 4.75-1.12 7 0v-10h-6c-0.33-1.32-0.66-2.64-1-4 3-1 3-1 6-1 0.33-3.3 0.66-6.6 1-10h-7c0.33-1.32 0.66-2.64 1-4 1.67-0.0427 3.33-0.0406 5 0 0.33 0.33 0.66 0.66 1 1 0.33-3.63 0.66-7.26 1-11h-7v-2h-2v-2c2.64-0.33 5.28-0.66 8-1v-10h-7c-0.33-1.32-0.66-2.64-1-4 6.75-0.125 6.75-0.125 9 1v-11c-1.11 0.0206-2.23 0.0412-3.38 0.0625-3.62-0.0625-3.62-0.0625-5.62-1.06v-3c6.75-1.12 6.75-1.12 9 0-0.33-3.63-0.66-7.26-1-11-2.47 0.495-2.47 0.495-5 1-0.99-0.33-1.98-0.66-3-1v-4c5.75-1.12 5.75-1.12 8 0v-10h-7c0.33-1.65 0.66-3.3 1-5h6c0.495-4.45 0.495-4.45 1-9h-7c-0.562-1.94-0.562-1.94-1-4 1-1 1-1 4.06-1.06 1.45 0.0309 1.45 0.0309 2.94 0.0625v-7z" fill="#FAFCFC"/>
<path transform="translate(595,1056)" d="m0 0c7.38 5.66 10.6 12.2 12.8 21.1 0.943 11.1-0.459 19.9-6.31 29.5-5.13 5.13-11.9 8.09-19.2 8.5-9.3-0.255-16-3.27-22.8-9.47-6.75-7.24-7.02-16.4-6.72-25.8 0.359-4.73 1.25-8.55 3.29-12.8 0.278-0.645 0.557-1.29 0.844-1.95 2.32-4.77 5.46-6.96 10.2-9.05 0.597-0.299 1.19-0.598 1.81-0.906 8-3.59 18.6-3.79 26.2 0.906z" fill="#FAFCFE"/>
<path transform="translate(671 1043)" d="m0 0c7.19 0.114 17.3 2.1 23.1 6.62 1.18 1.33 1.18 1.33 2.38 2.69 0.468 0.514 0.936 1.03 1.42 1.56 3.72 4.52 4.44 8.67 4.58 14.4-3.19 0.812-3.19 0.812-7 1-3.11-2.39-4.89-4.83-7-8.12-2.7-3.89-5.13-5.4-9.69-6.56-10.7-1.01-18.9-0.655-27.6 6.05-6.99 6.48-8.31 13.9-8.75 23.1-0.0238 10.9 2.7 17.1 10.2 24.8 8.76 5.45 16.7 6.7 26.8 4.75 7.1-1.9 7.1-1.9 13-6 0.244-3.36 0.244-3.36 0.125-7.12-0.018-1.28-0.0361-2.56-0.0547-3.88-0.0232-0.987-0.0464-1.97-0.0703-2.99-0.595-0.0251-1.19-0.0501-1.8-0.0759-2.69-0.116-5.38-0.239-8.07-0.362-0.937-0.0393-1.87-0.0786-2.84-0.119-1.34-0.0628-1.34-0.0628-2.71-0.127-0.827-0.0367-1.65-0.0733-2.51-0.111-2.06-0.205-2.06-0.205-4.06-1.21-0.125-5.75-0.125-5.75 1-8 10.6-0.33 21.1-0.66 32-1 2.11 4.22 1.51 9.57 1.62 14.2 0.0416 1.35 0.103 2.7 0.185 4.06 0.262 4.41 0.296 8.44-0.809 12.7-2.93 3.09-6.06 4.52-10 6-1.06 0.482-2.13 0.964-3.22 1.46-12.3 3.97-26.6 4.42-38.8-0.461-10.5-5.52-10.5-5.52-12-10-0.99-0.33-1.98-0.66-3-1-5.93-8.71-8.17-19.6-7-30 2.52-12.6 7.28-22.6 18-30 7.66-4.32 13.9-5.56 22.6-6.31z" fill="#133859"/>
<path transform="translate(604 1050)" d="m0 0c6.74 5.72 11.7 13.1 14 21.7 0.314 3.96 0.325 7.9 0.312 11.9 0.0161 1.05 0.0322 2.1 0.0488 3.18 0.00647 10.3-2.58 17.9-9.86 25.6-1.24 1.18-1.24 1.18-2.5 2.38-0.619 0.663-1.24 1.33-1.88 2.01-6.96 6.52-16.7 6.61-25.7 6.53-11.1-0.405-20.6-4.57-28.4-12.5-8.36-11-9.46-23.6-8-37 1.13-4.38 2.74-8.09 5-12 0.373-0.672 0.745-1.34 1.13-2.04 4.96-7.86 13.4-13.3 22.3-15.6 12-2.64 23.5-1.45 33.6 5.95zm-42.9 8.86c-7.79 10.3-9.19 20.2-8.12 32.8 1.39 7.73 4.59 12.5 10.7 17.4 6.63 4.61 13.7 6.1 21.6 5.38 7.15-1.29 13.1-4.41 17.5-10.3 5.32-8.28 6.27-17.9 4.59-27.5-2.26-9.9-6.33-15.9-14.5-22-9.84-5.15-23.4-2.3-31.9 4.19z" fill="#133859"/>
<path transform="translate(798,1047)" d="m0 0c5.5 4.74 9.12 10.5 10.9 17.5 0.0412 0.825 0.0825 1.65 0.125 2.5-1 1-1 1-4.31 1.31-3.69-0.312-3.69-0.312-5.75-1.81-1.14-1.48-2.27-2.96-3.37-4.48-0.517-0.709-1.03-1.42-1.57-2.15-0.474-0.683-0.949-1.37-1.44-2.07-2.73-3.15-4.81-3.73-8.95-4.14-7.47-0.0756-13.3-0.114-19.6 4.34-2.06 3.44-2.59 5.98-2 10 3.37 3.22 6.42 4.73 10.9 6 1.14 0.331 2.28 0.663 3.45 1 2.5 0.677 5 1.33 7.51 1.96 19.6 4.93 19.6 4.93 24.2 12.2 3.05 5.57 3.61 10.6 2.94 16.9-1.95 6.12-5.46 11-11.1 14.2-10.3 4.59-25.1 4.83-35.8 0.848-8.03-3.9-12.9-7.59-15.9-16.2-0.629-2.16-0.629-2.16-1.25-5.85 2-2 2-2 3.95-2.2 2.02 0.0651 4.04 0.13 6.05 0.195 0.208 0.592 0.415 1.18 0.629 1.79 2.81 7.2 6.15 10.2 13.1 13.5 8.41 1.9 15.2 2.48 23.3-0.949 2.39-1.51 3.62-2.87 5.06-5.3 0.692-5.65 0.692-5.65-1.69-10.6-2.55-2.64-4.32-3.59-7.75-4.84-1.14-0.412-2.27-0.825-3.45-1.25-3.09-1.02-6.21-1.9-9.36-2.75-0.919-0.25-1.84-0.499-2.78-0.756-1.82-0.485-3.64-0.952-5.46-1.4-7.19-1.9-12.6-5.08-17.5-10.7-1.96-5.39-1.76-10.7 0.25-16.1 5.56-8.54 11.3-11.7 21.1-14.3 9.01-1.26 17.3 0.0834 25.7 3.62z" fill="#133859"/>
<path transform="translate(1057 1049)" d="m0 0c4.25 4.54 7.45 9.14 8 15.4-0.103 0.804-0.206 1.61-0.312 2.44-3.05 0.288-5.96 0.429-9 0-1.81-2.12-1.81-2.12-3-5-2.21-4.42-4.02-6.36-8.62-7.94-7.97-1.97-14.7-0.91-21.9 2.9-1.67 0.976-1.67 0.976-2.5 3.04-0.0695 1.54-0.0845 3.08-0.0625 4.62 0.0135 1.23 0.0135 1.23 0.0273 2.48 0.0116 0.626 0.0232 1.25 0.0352 1.9 1.07 0.619 2.14 1.24 3.25 1.88 0.603 0.348 1.21 0.696 1.83 1.05 0.634 0.353 1.27 0.706 1.92 1.07 0.607 0.347 1.21 0.694 1.84 1.05 2.78 1.22 5.49 1.7 8.47 2.26 5.36 1.12 10.6 2.42 15.8 4.06 1.83 0.568 1.83 0.568 3.7 1.15 5.41 2.51 8.83 7.8 10.9 13.4 0.929 6.32 0.646 12.5-2.88 18-4.28 5.45-9.34 7.99-15.8 10.1-14.3 1.14-27.6 0.638-39-9-4.69-5.36-5.11-10.2-5-17h9c0.516 1.2 1.03 2.39 1.56 3.62 2.89 5.66 6.24 9.15 12.2 11.4 7.82 2.21 14.4 2.46 22.1-0.32 3.5-1.96 4.69-3.03 6.12-6.75 0.544-5.08 0.0188-7.9-3-12-5.46-3.11-11.9-4.24-18-5.44-9.78-1.98-21-5.81-26.9-14.4-1.83-5.49-1.63-9.51 0.188-14.9 3.89-7.36 8.56-10.9 16.4-13.5 11.2-2.69 22.8-2.04 32.7 4.31z" fill="#133859"/>
<path transform="translate(983 1049)" d="m0 0c4.27 4.02 8.62 9.58 9.01 15.6-0.0928 1.07-0.0928 1.07-0.188 2.16-3.95 1.32-5.84 1.82-10 1-2.26-2.63-4.09-5.35-5.91-8.3-3.19-4.12-6.3-5.47-11.4-6.13-9.11-0.0102-15.5 0.905-22.5 6.87-7.36 8.88-7.91 18.5-7.32 29.5 0.6 6.17 2.71 11.2 6.57 16 8.5 6.68 14.9 7.8 25.6 7.06 6.51-1.71 10.2-5.61 14-11 1.46-3.28 1.46-3.28 2-6 1.48-0.0269 2.96-0.0463 4.44-0.0625 1.24-0.0174 1.24-0.0174 2.5-0.0352 2.07 0.0977 2.07 0.0977 3.07 1.1 0.844 6.92-2.43 11.6-6.12 17.2-4.52 5.15-12.1 8.4-18.9 8.99-18.6 0.527-18.6 0.527-27-4.18-0.628-0.266-1.26-0.531-1.9-0.805-6.8-3.12-10.5-9.56-13.4-16.2-4.06-11.5-4.58-24.7 0.328-36 0.329-0.767 0.657-1.53 0.996-2.32 4.14-8.44 11-14.5 19.7-17.9 12.1-3.99 25.5-3.97 36.4 3.54z" fill="#133859"/>
<path transform="translate(829 1045)" d="m0 0c1.8-0.00473 1.8-0.00473 3.63-0.00955 1.95 0.00304 1.95 0.00304 3.94 0.00613 1.34-6.73e-4 2.68-0.00164 4.02-0.0029 2.81-0.00148 5.62 6.72e-4 8.43 0.00534 3.61 0.0057 7.21 0.00241 10.8-0.00357 2.77-0.00361 5.53-0.00247 8.3 1.28e-4 1.98 9.95e-4 3.96-0.00205 5.94-0.00513 1.19 0.00315 2.39 0.0063 3.62 0.00955 1.59 0.00119 1.59 0.00119 3.2 0.00241 2.38 0.127 2.38 0.127 3.38 1.13 0.141 2.67 0.0425 5.32 0 8-1.08 0.0376-1.08 0.0376-2.19 0.0759-3.25 0.116-6.5 0.238-9.75 0.362-1.14 0.0393-2.27 0.0786-3.44 0.119-1.62 0.0628-1.62 0.0628-3.27 0.127-1 0.0367-2 0.0733-3.03 0.111-2.28-0.048-2.28-0.048-3.32 1.21-0.124 2.05-0.178 4.11-0.205 6.17-0.0099 0.644-0.0198 1.29-0.03 1.95-0.0317 2.14-0.0564 4.27-0.0811 6.41-0.0206 1.48-0.0416 2.96-0.063 4.43-0.0553 3.9-0.105 7.8-0.153 11.7-0.0502 3.97-0.106 7.95-0.161 11.9-0.108 7.8-0.209 15.6-0.307 23.4-1.65-0.14-3.29-0.287-4.94-0.438-1.37-0.122-1.37-0.122-2.78-0.246-2.29-0.316-2.29-0.316-3.29-1.32-0.118-1.99-0.167-3.98-0.189-5.97-0.0167-1.28-0.0334-2.56-0.0507-3.87-0.00668-0.687-0.0134-1.37-0.0202-2.08-0.021-2.14-0.048-4.29-0.0767-6.43-0.07-5.32-0.129-10.6-0.189-16-0.0509-4.49-0.106-8.99-0.166-13.5-0.0267-2.12-0.0474-4.23-0.068-6.35-0.0167-1.28-0.0334-2.56-0.0507-3.87-0.0125-1.13-0.0251-2.26-0.038-3.43 0.135-2.48 0.135-2.48-1.15-3.54-1.69-0.145-3.39-0.227-5.09-0.281-1.54-0.0561-1.54-0.0561-3.12-0.113-1.08-0.0348-2.17-0.0696-3.29-0.105-2.14-0.0686-4.27-0.141-6.41-0.219-0.952-0.0303-1.9-0.0606-2.88-0.0918-2.21-0.189-2.21-0.189-3.21-1.19-0.0409-2.33-0.0424-4.67 0-7 2.67-1.34 4.72-1.13 7.72-1.13z" fill="#13385A"/>
<path transform="translate(1583,1565)" d="m0 0h1v35h-39c-0.33-10.9-0.66-21.8-1-33 3.17-1.58 6.56-1.1 10-1.06 0.794 0.00379 1.59 0.00757 2.41 0.0115 2.54 0.0122 5.08 0.0309 7.62 0.051 3.35 0.0265 6.69 0.0465 10 0.0625 1.16 0.0124 1.16 0.0124 2.35 0.0251 1.85 0.00856 3.7-0.0343 5.55-0.0876l1-1z" fill="#F9A618"/>
<path transform="translate(486 1045)" d="m0 0c2.02 0.0651 4.04 0.13 6.05 0.195 1.39 2.78 1.16 5.09 1.21 8.19 0.0199 1.3 0.0399 2.6 0.0604 3.94 0.017 1.43 0.0339 2.85 0.0506 4.28 0.0206 1.45 0.0416 2.91 0.063 4.36 0.0552 3.83 0.105 7.66 0.153 11.5 0.0502 3.91 0.106 7.82 0.161 11.7 0.108 7.67 0.209 15.3 0.307 23 1.11 0.0198 2.22 0.0396 3.36 0.0601 4.11 0.076 8.22 0.165 12.3 0.257 1.78 0.0383 3.56 0.0732 5.34 0.104 2.56 0.0456 5.11 0.104 7.67 0.164 0.799 0.0116 1.6 0.0231 2.42 0.035 5.64 0.151 5.64 0.151 7.87 2.38 0.125 3.62 0.125 3.62 0 7-6.94 0.0506-13.9 0.0857-20.8 0.11-2.36 0.0101-4.73 0.0237-7.09 0.041-3.39 0.0242-6.78 0.0356-10.2 0.0444-1.06 0.0103-2.12 0.0206-3.22 0.0313-0.981 1.51e-4 -1.96 3.02e-4 -2.97 4.58e-4 -1.3 0.00666-1.3 0.00666-2.62 0.0135-2.1-0.241-2.1-0.241-4.1-2.24-0.319-2.29-0.319-2.29-0.414-5.2-0.0388-1.09-0.0777-2.19-0.118-3.31-0.0308-1.19-0.0616-2.39-0.0933-3.62-0.0372-1.23-0.0744-2.47-0.113-3.74-0.263-9.69-0.365-19.4-0.387-29.1-0.00467-1.31-0.00935-2.61-0.0142-3.96 0.0429-25.8 0.0429-25.8 5.08-26.3z" fill="#13385A"/>
<path transform="translate(1581,1273)" d="m0 0c0.99 0.33 1.98 0.66 3 1v291h-1c-0.33-2.31-0.66-4.62-1-7-2.64-0.66-5.28-1.32-8-2v-3h8c0.33-3.63 0.66-7.26 1-11h-8v-4c2.64 0.33 5.28 0.66 8 1-0.33-3.3-0.66-6.6-1-10h-4v-6c0.99 0.33 1.98 0.66 3 1 0.33-3.3 0.66-6.6 1-10h-8c0.33-1.65 0.66-3.3 1-5h7v-10h-7v-4h6c0.33-3.3 0.66-6.6 1-10h-6c-0.33-1.32-0.66-2.64-1-4h6v-10h-3v-5h3c0.33-3.63 0.66-7.26 1-11h-4v-3h4c-0.33-3.63-0.66-7.26-1-11h-5v-3h6v-12c-1.32 0.33-2.64 0.66-4 1 0.495-1.98 0.495-1.98 1-4 0.99 0.33 1.98 0.66 3 1v-12h-4v-3h4v-11h-4c0.33-1.32 0.66-2.64 1-4h2c0.33-3.63 0.66-7.26 1-11h-4v-3h4v-11h-4v-4h3c0.33-3.63 0.66-7.26 1-11-3.46 0.495-3.46 0.495-7 1v-4h7v-12c-2.97 0.495-2.97 0.495-6 1-0.66-0.99-1.32-1.98-2-3 3.29-0.8 4.71-1.1 8 0v-11h-7v-5c2.31 0.33 4.62 0.66 7 1v-9c-2.31-0.33-4.62-0.66-7-1v-5h6c0.33-3.3 0.66-6.6 1-10-1.65 0.33-3.3 0.66-5 1-0.99-1.32-1.98-2.64-3-4 3-2 3-2 7-2 0.495-4.45 0.495-4.45 1-9h-6c-0.33-1.32-0.66-2.64-1-4 1.65-0.66 3.3-1.32 5-2-0.33-0.66-0.66-1.32-1-2l2-2z" fill="#FAFCFC"/>
<path transform="translate(902 1045)" d="m0 0c1.73 0.155 1.73 0.155 3.5 0.312 2.49 3.74 2.24 5.66 2.23 10.1 2.92e-4 0.722 5.84e-4 1.44 8.85e-4 2.19-0.00139 2.39-0.017 4.77-0.0326 7.16-0.00373 1.65-0.00658 3.31-0.00858 4.96-0.00764 4.35-0.0273 8.71-0.0494 13.1-0.0205 4.44-0.0296 8.89-0.0397 13.3-0.0214 8.72-0.0556 17.4-0.0977 26.2-1.46 0.054-2.92 0.0928-4.38 0.125-0.812 0.0232-1.62 0.0464-2.46 0.0703-2.16-0.195-2.16-0.195-4.16-2.2-0.254-3-0.254-3-0.259-6.9-0.0035-0.709-0.00701-1.42-0.0106-2.15-0.00882-2.35-0.00297-4.7 0.00378-7.05-0.00135-1.63-0.00329-3.26-0.0058-4.89-0.00295-3.42 0.00135-6.83 0.0107-10.2 0.0114-4.39 0.00484-8.77-0.00714-13.2-0.00722-3.36-0.00493-6.73 2.56e-4 -10.1 0.00134-1.62-3.12e-4 -3.23-0.00496-4.85-0.00506-2.26 0.00264-4.52 0.0138-6.77 0.00159-1.29 0.00318-2.57 0.00482-3.9 0.378-4.46 1.35-4.92 5.75-5.31z" fill="#13385A"/>
<path transform="translate(721,1045)" d="m0 0h9c1.47 2.94 1.13 5.89 1.11 9.11 1.46e-4 0.732 2.92e-4 1.46 4.43e-4 2.22-6.98e-4 2.42-0.00848 4.85-0.0163 7.27-0.00186 1.68-0.00329 3.36-0.00429 5.04-0.00382 4.42-0.0136 8.84-0.0247 13.3-0.0102 4.51-0.0148 9.02-0.0198 13.5-0.0107 8.85-0.0278 17.7-0.0488 26.6h-9c-1.96-4.11-2.25-7.43-2.24-12-0.0019-0.68-0.0038-1.36-0.00575-2.06-0.00369-2.24 0.00697-4.47 0.0182-6.71 0.00119-1.56 0.00164-3.11 0.00139-4.67 0.00156-3.26 0.00983-6.51 0.0233-9.77 0.017-4.18 0.0208-8.36 0.0201-12.5 2.72e-4 -3.21 0.00575-6.43 0.013-9.64 0.00319-1.54 0.00515-3.08 0.00589-4.63 0.00216-2.15 0.0109-4.3 0.0216-6.45 0.00381-1.22 0.00762-2.45 0.0116-3.71 0.134-2.86 0.134-2.86 1.13-4.86z" fill="#13385A"/>
<path transform="translate(904,465)" d="m0 0h74c1.65 3.31 1.1 6.99 1.06 10.6-0.00451 0.802-0.00902 1.6-0.0137 2.43-0.0118 1.98-0.0297 3.96-0.0488 5.95-0.99-1.49-0.99-1.49-2-3 0.33-0.66 0.66-1.32 1-2h-3c-0.33 1.32-0.66 2.64-1 4v-3h-2v-4c-0.99-0.99-0.99-0.99-2-2v-3c-4.17-1.56-7.74-2.28-12.2-2.41-1.8-0.0598-1.8-0.0598-3.64-0.121-1.28-0.0334-2.56-0.0668-3.88-0.101-1.34-0.0412-2.67-0.0832-4.01-0.126-3.5-0.11-7-0.209-10.5-0.306-3.58-0.101-7.16-0.212-10.7-0.322-7.01-0.214-14-0.418-21-0.613v-2z" fill="#0A0F12"/>
<path transform="translate(1519,1531)" d="m0 0c0.99 0.66 1.98 1.32 3 2-3.16 6.85-7.49 13-14 17-3.94 0.0625-3.94 0.0625-7-1-0.33-0.66-0.66-1.32-1-2 11.3-13.6 11.3-13.6 18-15l1-1z" fill="#F9FAFB"/>
<path transform="translate(1559,1547)" d="m0 0c1.79 0.141 3.58 0.288 5.38 0.438 1.5 0.122 1.5 0.122 3.02 0.246 2.6 0.316 2.6 0.316 4.6 1.32v8c-0.99 0.495-0.99 0.495-2 1-0.99-0.33-1.98-0.66-3-1v2c0.66 0.33 1.32 0.66 2 1h-2v2h-3c0.33-2.64 0.66-5.28 1-8-2.64-0.33-5.28-0.66-8-1 0.66-1.98 1.32-3.96 2-6z" fill="#FBFDFF"/>
<path transform="translate(0,9)" d="m0 0c1.32 0.33 2.64 0.66 4 1v39h-1c-0.0251-0.843-0.0501-1.69-0.0759-2.55-0.095-3.12-0.194-6.24-0.296-9.35-0.0434-1.35-0.0851-2.7-0.125-4.05-0.0576-1.94-0.122-3.88-0.186-5.82l-0.111-3.54c0.0939-2.6 0.0939-2.6-1.21-3.68-0.234-1.85-0.413-3.7-0.562-5.56-0.0838-1.01-0.168-2.02-0.254-3.07-0.0606-0.782-0.121-1.56-0.184-2.37z" fill="#13385A"/>
</svg>
